<svg width="410" height="63" viewBox="0 0 410 63" fill="none" xmlns="http://www.w3.org/2000/svg">
<path d="M2.646 6.55837V9.41437H6.006V10.7164H2.646V13.6984H6.426V15.0004H1.05V5.25637H6.426V6.55837H2.646ZM17.7298 7.16037C18.3365 7.16037 18.8778 7.28637 19.3538 7.53837C19.8391 7.79037 20.2171 8.1637 20.4878 8.65837C20.7678 9.15303 20.9078 9.75037 20.9078 10.4504V15.0004H19.3258V10.6884C19.3258 9.9977 19.1531 9.47037 18.8078 9.10637C18.4625 8.73303 17.9911 8.54637 17.3938 8.54637C16.7965 8.54637 16.3205 8.73303 15.9658 9.10637C15.6205 9.47037 15.4478 9.9977 15.4478 10.6884V15.0004H13.8658V10.6884C13.8658 9.9977 13.6931 9.47037 13.3478 9.10637C13.0025 8.73303 12.5311 8.54637 11.9338 8.54637C11.3365 8.54637 10.8605 8.73303 10.5058 9.10637C10.1605 9.47037 9.9878 9.9977 9.9878 10.6884V15.0004H8.3918V7.28637H9.9878V8.16837C10.2491 7.85103 10.5805 7.6037 10.9818 7.42637C11.3831 7.24903 11.8125 7.16037 12.2698 7.16037C12.8858 7.16037 13.4365 7.29103 13.9218 7.55237C14.4071 7.8137 14.7805 8.1917 15.0418 8.68637C15.2751 8.2197 15.6391 7.85103 16.1338 7.58037C16.6285 7.30037 17.1605 7.16037 17.7298 7.16037ZM22.4067 11.1084C22.4067 10.3337 22.5653 9.6477 22.8827 9.05037C23.2093 8.45303 23.648 7.99103 24.1987 7.66437C24.7587 7.32837 25.3747 7.16037 26.0467 7.16037C26.6533 7.16037 27.1807 7.2817 27.6287 7.52437C28.086 7.7577 28.45 8.0517 28.7207 8.40637V7.28637H30.3307V15.0004H28.7207V13.8524C28.45 14.2164 28.0813 14.5197 27.6147 14.7624C27.148 15.005 26.616 15.1264 26.0187 15.1264C25.356 15.1264 24.7493 14.9584 24.1987 14.6224C23.648 14.277 23.2093 13.801 22.8827 13.1944C22.5653 12.5784 22.4067 11.883 22.4067 11.1084ZM28.7207 11.1364C28.7207 10.6044 28.6087 10.1424 28.3847 9.75037C28.17 9.35837 27.8853 9.0597 27.5307 8.85437C27.176 8.64903 26.7933 8.54637 26.3827 8.54637C25.972 8.54637 25.5893 8.64903 25.2347 8.85437C24.88 9.05037 24.5907 9.34437 24.3667 9.73637C24.152 10.119 24.0447 10.5764 24.0447 11.1084C24.0447 11.6404 24.152 12.107 24.3667 12.5084C24.5907 12.9097 24.88 13.2177 25.2347 13.4324C25.5987 13.6377 25.9813 13.7404 26.3827 13.7404C26.7933 13.7404 27.176 13.6377 27.5307 13.4324C27.8853 13.227 28.17 12.9284 28.3847 12.5364C28.6087 12.135 28.7207 11.6684 28.7207 11.1364ZM33.239 6.26437C32.9496 6.26437 32.707 6.16637 32.511 5.97037C32.315 5.77437 32.217 5.5317 32.217 5.24237C32.217 4.95303 32.315 4.71037 32.511 4.51437C32.707 4.31837 32.9496 4.22037 33.239 4.22037C33.519 4.22037 33.757 4.31837 33.953 4.51437C34.149 4.71037 34.247 4.95303 34.247 5.24237C34.247 5.5317 34.149 5.77437 33.953 5.97037C33.757 6.16637 33.519 6.26437 33.239 6.26437ZM34.023 7.28637V15.0004H32.427V7.28637H34.023ZM37.7144 4.64037V15.0004H36.1184V4.64037H37.7144Z" fill="#172B4D"/>
<path d="M44.488 5.49437L45.118 6.61437L43.2 7.32837L45.118 8.04237L44.474 9.19037L42.878 7.93037L43.172 9.96037H41.884L42.15 7.93037L40.554 9.21837L39.882 8.02837L41.786 7.31437L39.882 6.62837L40.526 5.48037L42.164 6.74037L41.884 4.69637H43.186L42.878 6.74037L44.488 5.49437Z" fill="#FF5E5E"/>
<rect x="0.5" y="26.5004" width="409" height="36" rx="2.5" stroke="#D4D6DE"/>
<path opacity="0.5" d="M14.646 40.5584V43.4144H18.006V44.7164H14.646V47.6984H18.426V49.0004H13.05V39.2564H18.426V40.5584H14.646ZM24.2838 41.1604C24.8905 41.1604 25.4318 41.2864 25.9078 41.5384C26.3931 41.7904 26.7711 42.1637 27.0418 42.6584C27.3125 43.153 27.4478 43.7504 27.4478 44.4504V49.0004H25.8658V44.6884C25.8658 43.9977 25.6931 43.4704 25.3478 43.1064C25.0025 42.733 24.5311 42.5464 23.9338 42.5464C23.3365 42.5464 22.8605 42.733 22.5058 43.1064C22.1605 43.4704 21.9878 43.9977 21.9878 44.6884V49.0004H20.3918V41.2864H21.9878V42.1684C22.2491 41.851 22.5805 41.6037 22.9818 41.4264C23.3925 41.249 23.8265 41.1604 24.2838 41.1604ZM31.3456 42.5884V46.8584C31.3456 47.1477 31.4109 47.3577 31.5416 47.4884C31.6816 47.6097 31.9149 47.6704 32.2416 47.6704H33.2216V49.0004H31.9616C31.2429 49.0004 30.6923 48.8324 30.3096 48.4964C29.9269 48.1604 29.7356 47.6144 29.7356 46.8584V42.5884H28.8256V41.2864H29.7356V39.3684H31.3456V41.2864H33.2216V42.5884H31.3456ZM41.7626 44.9544C41.7626 45.2437 41.7439 45.505 41.7066 45.7384H35.8126C35.8592 46.3544 36.0879 46.849 36.4986 47.2224C36.9092 47.5957 37.4132 47.7824 38.0106 47.7824C38.8692 47.7824 39.4759 47.423 39.8306 46.7044H41.5526C41.3192 47.4137 40.8946 47.997 40.2786 48.4544C39.6719 48.9024 38.9159 49.1264 38.0106 49.1264C37.2732 49.1264 36.6106 48.963 36.0226 48.6364C35.4439 48.3004 34.9866 47.8337 34.6506 47.2364C34.3239 46.6297 34.1606 45.9297 34.1606 45.1364C34.1606 44.343 34.3192 43.6477 34.6366 43.0504C34.9632 42.4437 35.4159 41.977 35.9946 41.6504C36.5826 41.3237 37.2546 41.1604 38.0106 41.1604C38.7386 41.1604 39.3872 41.319 39.9566 41.6364C40.5259 41.9537 40.9692 42.4017 41.2866 42.9804C41.6039 43.5497 41.7626 44.2077 41.7626 44.9544ZM40.0966 44.4504C40.0872 43.8624 39.8772 43.391 39.4666 43.0364C39.0559 42.6817 38.5472 42.5044 37.9406 42.5044C37.3899 42.5044 36.9186 42.6817 36.5266 43.0364C36.1346 43.3817 35.9012 43.853 35.8266 44.4504H40.0966ZM44.9292 42.4064C45.1625 42.0144 45.4705 41.711 45.8532 41.4964C46.2452 41.2724 46.7072 41.1604 47.2392 41.1604V42.8124H46.8332C46.2079 42.8124 45.7319 42.971 45.4052 43.2884C45.0879 43.6057 44.9292 44.1564 44.9292 44.9404V49.0004H43.3332V41.2864H44.9292V42.4064ZM59.413 44.9544C59.413 45.2437 59.3943 45.505 59.357 45.7384H53.463C53.5096 46.3544 53.7383 46.849 54.149 47.2224C54.5596 47.5957 55.0636 47.7824 55.661 47.7824C56.5196 47.7824 57.1263 47.423 57.481 46.7044H59.203C58.9696 47.4137 58.545 47.997 57.929 48.4544C57.3223 48.9024 56.5663 49.1264 55.661 49.1264C54.9236 49.1264 54.261 48.963 53.673 48.6364C53.0943 48.3004 52.637 47.8337 52.301 47.2364C51.9743 46.6297 51.811 45.9297 51.811 45.1364C51.811 44.343 51.9696 43.6477 52.287 43.0504C52.6136 42.4437 53.0663 41.977 53.645 41.6504C54.233 41.3237 54.905 41.1604 55.661 41.1604C56.389 41.1604 57.0376 41.319 57.607 41.6364C58.1763 41.9537 58.6196 42.4017 58.937 42.9804C59.2543 43.5497 59.413 44.2077 59.413 44.9544ZM57.747 44.4504C57.7376 43.8624 57.5276 43.391 57.117 43.0364C56.7063 42.6817 56.1976 42.5044 55.591 42.5044C55.0403 42.5044 54.569 42.6817 54.177 43.0364C53.785 43.3817 53.5516 43.853 53.477 44.4504H57.747ZM70.3216 41.1604C70.9283 41.1604 71.4696 41.2864 71.9456 41.5384C72.4309 41.7904 72.8089 42.1637 73.0796 42.6584C73.3596 43.153 73.4996 43.7504 73.4996 44.4504V49.0004H71.9176V44.6884C71.9176 43.9977 71.7449 43.4704 71.3996 43.1064C71.0543 42.733 70.5829 42.5464 69.9856 42.5464C69.3883 42.5464 68.9123 42.733 68.5576 43.1064C68.2123 43.4704 68.0396 43.9977 68.0396 44.6884V49.0004H66.4576V44.6884C66.4576 43.9977 66.2849 43.4704 65.9396 43.1064C65.5943 42.733 65.1229 42.5464 64.5256 42.5464C63.9283 42.5464 63.4523 42.733 63.0976 43.1064C62.7523 43.4704 62.5796 43.9977 62.5796 44.6884V49.0004H60.9836V41.2864H62.5796V42.1684C62.8409 41.851 63.1723 41.6037 63.5736 41.4264C63.9749 41.249 64.4043 41.1604 64.8616 41.1604C65.4776 41.1604 66.0283 41.291 66.5136 41.5524C66.9989 41.8137 67.3723 42.1917 67.6336 42.6864C67.8669 42.2197 68.2309 41.851 68.7256 41.5804C69.2203 41.3004 69.7523 41.1604 70.3216 41.1604ZM74.9985 45.1084C74.9985 44.3337 75.1571 43.6477 75.4745 43.0504C75.8011 42.453 76.2398 41.991 76.7905 41.6644C77.3505 41.3284 77.9665 41.1604 78.6385 41.1604C79.2451 41.1604 79.7725 41.2817 80.2205 41.5244C80.6778 41.7577 81.0418 42.0517 81.3125 42.4064V41.2864H82.9225V49.0004H81.3125V47.8524C81.0418 48.2164 80.6731 48.5197 80.2065 48.7624C79.7398 49.005 79.2078 49.1264 78.6105 49.1264C77.9478 49.1264 77.3411 48.9584 76.7905 48.6224C76.2398 48.277 75.8011 47.801 75.4745 47.1944C75.1571 46.5784 74.9985 45.883 74.9985 45.1084ZM81.3125 45.1364C81.3125 44.6044 81.2005 44.1424 80.9765 43.7504C80.7618 43.3584 80.4771 43.0597 80.1225 42.8544C79.7678 42.649 79.3851 42.5464 78.9745 42.5464C78.5638 42.5464 78.1811 42.649 77.8265 42.8544C77.4718 43.0504 77.1825 43.3444 76.9585 43.7364C76.7438 44.119 76.6365 44.5764 76.6365 45.1084C76.6365 45.6404 76.7438 46.107 76.9585 46.5084C77.1825 46.9097 77.4718 47.2177 77.8265 47.4324C78.1905 47.6377 78.5731 47.7404 78.9745 47.7404C79.3851 47.7404 79.7678 47.6377 80.1225 47.4324C80.4771 47.227 80.7618 46.9284 80.9765 46.5364C81.2005 46.135 81.3125 45.6684 81.3125 45.1364ZM85.8308 40.2644C85.5414 40.2644 85.2988 40.1664 85.1028 39.9704C84.9068 39.7744 84.8088 39.5317 84.8088 39.2424C84.8088 38.953 84.9068 38.7104 85.1028 38.5144C85.2988 38.3184 85.5414 38.2204 85.8308 38.2204C86.1108 38.2204 86.3488 38.3184 86.5448 38.5144C86.7408 38.7104 86.8388 38.953 86.8388 39.2424C86.8388 39.5317 86.7408 39.7744 86.5448 39.9704C86.3488 40.1664 86.1108 40.2644 85.8308 40.2644ZM86.6148 41.2864V49.0004H85.0188V41.2864H86.6148ZM90.3062 38.6404V49.0004H88.7102V38.6404H90.3062Z" fill="#6B778C"/>
</svg>
