<svg width="410" height="63" viewBox="0 0 410 63" fill="none" xmlns="http://www.w3.org/2000/svg">
<path d="M9.044 15.0004H7.448L2.646 7.73437V15.0004H1.05V5.25637H2.646L7.448 12.5084V5.25637H9.044V15.0004ZM10.6078 11.1084C10.6078 10.3337 10.7665 9.6477 11.0838 9.05037C11.4105 8.45303 11.8492 7.99103 12.3998 7.66437C12.9598 7.32837 13.5758 7.16037 14.2478 7.16037C14.8545 7.16037 15.3818 7.2817 15.8298 7.52437C16.2872 7.7577 16.6512 8.0517 16.9218 8.40637V7.28637H18.5318V15.0004H16.9218V13.8524C16.6512 14.2164 16.2825 14.5197 15.8158 14.7624C15.3492 15.005 14.8172 15.1264 14.2198 15.1264C13.5572 15.1264 12.9505 14.9584 12.3998 14.6224C11.8492 14.277 11.4105 13.801 11.0838 13.1944C10.7665 12.5784 10.6078 11.883 10.6078 11.1084ZM16.9218 11.1364C16.9218 10.6044 16.8098 10.1424 16.5858 9.75037C16.3712 9.35837 16.0865 9.0597 15.7318 8.85437C15.3772 8.64903 14.9945 8.54637 14.5838 8.54637C14.1732 8.54637 13.7905 8.64903 13.4358 8.85437C13.0812 9.05037 12.7918 9.34437 12.5678 9.73637C12.3532 10.119 12.2458 10.5764 12.2458 11.1084C12.2458 11.6404 12.3532 12.107 12.5678 12.5084C12.7918 12.9097 13.0812 13.2177 13.4358 13.4324C13.7998 13.6377 14.1825 13.7404 14.5838 13.7404C14.9945 13.7404 15.3772 13.6377 15.7318 13.4324C16.0865 13.227 16.3712 12.9284 16.5858 12.5364C16.8098 12.135 16.9218 11.6684 16.9218 11.1364ZM29.9661 7.16037C30.5728 7.16037 31.1141 7.28637 31.5901 7.53837C32.0755 7.79037 32.4535 8.1637 32.7241 8.65837C33.0041 9.15303 33.1441 9.75037 33.1441 10.4504V15.0004H31.5621V10.6884C31.5621 9.9977 31.3895 9.47037 31.0441 9.10637C30.6988 8.73303 30.2275 8.54637 29.6301 8.54637C29.0328 8.54637 28.5568 8.73303 28.2021 9.10637C27.8568 9.47037 27.6841 9.9977 27.6841 10.6884V15.0004H26.1021V10.6884C26.1021 9.9977 25.9295 9.47037 25.5841 9.10637C25.2388 8.73303 24.7675 8.54637 24.1701 8.54637C23.5728 8.54637 23.0968 8.73303 22.7421 9.10637C22.3968 9.47037 22.2241 9.9977 22.2241 10.6884V15.0004H20.6281V7.28637H22.2241V8.16837C22.4855 7.85103 22.8168 7.6037 23.2181 7.42637C23.6195 7.24903 24.0488 7.16037 24.5061 7.16037C25.1221 7.16037 25.6728 7.29103 26.1581 7.55237C26.6435 7.8137 27.0168 8.1917 27.2781 8.68637C27.5115 8.2197 27.8755 7.85103 28.3701 7.58037C28.8648 7.30037 29.3968 7.16037 29.9661 7.16037ZM42.245 10.9544C42.245 11.2437 42.2263 11.505 42.189 11.7384H36.295C36.3417 12.3544 36.5703 12.849 36.981 13.2224C37.3917 13.5957 37.8957 13.7824 38.493 13.7824C39.3517 13.7824 39.9583 13.423 40.313 12.7044H42.035C41.8017 13.4137 41.377 13.997 40.761 14.4544C40.1543 14.9024 39.3983 15.1264 38.493 15.1264C37.7557 15.1264 37.093 14.963 36.505 14.6364C35.9263 14.3004 35.469 13.8337 35.133 13.2364C34.8063 12.6297 34.643 11.9297 34.643 11.1364C34.643 10.343 34.8017 9.6477 35.119 9.05037C35.4457 8.4437 35.8983 7.97703 36.477 7.65037C37.065 7.3237 37.737 7.16037 38.493 7.16037C39.221 7.16037 39.8697 7.31903 40.439 7.63637C41.0083 7.9537 41.4517 8.4017 41.769 8.98037C42.0863 9.5497 42.245 10.2077 42.245 10.9544ZM40.579 10.4504C40.5697 9.86237 40.3597 9.39103 39.949 9.03637C39.5383 8.6817 39.0297 8.50437 38.423 8.50437C37.8723 8.50437 37.401 8.6817 37.009 9.03637C36.617 9.3817 36.3837 9.85303 36.309 10.4504H40.579Z" fill="#172B4D"/>
<path d="M48.488 5.49437L49.118 6.61437L47.2 7.32837L49.118 8.04237L48.474 9.19037L46.878 7.93037L47.172 9.96037H45.884L46.15 7.93037L44.554 9.21837L43.882 8.02837L45.786 7.31437L43.882 6.62837L44.526 5.48037L46.164 6.74037L45.884 4.69637H47.186L46.878 6.74037L48.488 5.49437Z" fill="#FF5E5E"/>
<rect x="0.5" y="26.5004" width="409" height="36" rx="2.5" stroke="#D4D6DE"/>
<path opacity="0.5" d="M14.646 40.5584V43.4144H18.006V44.7164H14.646V47.6984H18.426V49.0004H13.05V39.2564H18.426V40.5584H14.646ZM24.2838 41.1604C24.8905 41.1604 25.4318 41.2864 25.9078 41.5384C26.3931 41.7904 26.7711 42.1637 27.0418 42.6584C27.3125 43.153 27.4478 43.7504 27.4478 44.4504V49.0004H25.8658V44.6884C25.8658 43.9977 25.6931 43.4704 25.3478 43.1064C25.0025 42.733 24.5311 42.5464 23.9338 42.5464C23.3365 42.5464 22.8605 42.733 22.5058 43.1064C22.1605 43.4704 21.9878 43.9977 21.9878 44.6884V49.0004H20.3918V41.2864H21.9878V42.1684C22.2491 41.851 22.5805 41.6037 22.9818 41.4264C23.3925 41.249 23.8265 41.1604 24.2838 41.1604ZM31.3456 42.5884V46.8584C31.3456 47.1477 31.4109 47.3577 31.5416 47.4884C31.6816 47.6097 31.9149 47.6704 32.2416 47.6704H33.2216V49.0004H31.9616C31.2429 49.0004 30.6923 48.8324 30.3096 48.4964C29.9269 48.1604 29.7356 47.6144 29.7356 46.8584V42.5884H28.8256V41.2864H29.7356V39.3684H31.3456V41.2864H33.2216V42.5884H31.3456ZM41.7626 44.9544C41.7626 45.2437 41.7439 45.505 41.7066 45.7384H35.8126C35.8592 46.3544 36.0879 46.849 36.4986 47.2224C36.9092 47.5957 37.4132 47.7824 38.0106 47.7824C38.8692 47.7824 39.4759 47.423 39.8306 46.7044H41.5526C41.3192 47.4137 40.8946 47.997 40.2786 48.4544C39.6719 48.9024 38.9159 49.1264 38.0106 49.1264C37.2732 49.1264 36.6106 48.963 36.0226 48.6364C35.4439 48.3004 34.9866 47.8337 34.6506 47.2364C34.3239 46.6297 34.1606 45.9297 34.1606 45.1364C34.1606 44.343 34.3192 43.6477 34.6366 43.0504C34.9632 42.4437 35.4159 41.977 35.9946 41.6504C36.5826 41.3237 37.2546 41.1604 38.0106 41.1604C38.7386 41.1604 39.3872 41.319 39.9566 41.6364C40.5259 41.9537 40.9692 42.4017 41.2866 42.9804C41.6039 43.5497 41.7626 44.2077 41.7626 44.9544ZM40.0966 44.4504C40.0872 43.8624 39.8772 43.391 39.4666 43.0364C39.0559 42.6817 38.5472 42.5044 37.9406 42.5044C37.3899 42.5044 36.9186 42.6817 36.5266 43.0364C36.1346 43.3817 35.9012 43.853 35.8266 44.4504H40.0966ZM44.9292 42.4064C45.1625 42.0144 45.4705 41.711 45.8532 41.4964C46.2452 41.2724 46.7072 41.1604 47.2392 41.1604V42.8124H46.8332C46.2079 42.8124 45.7319 42.971 45.4052 43.2884C45.0879 43.6057 44.9292 44.1564 44.9292 44.9404V49.0004H43.3332V41.2864H44.9292V42.4064ZM56.235 41.1604C56.8416 41.1604 57.383 41.2864 57.859 41.5384C58.3443 41.7904 58.7223 42.1637 58.993 42.6584C59.2636 43.153 59.399 43.7504 59.399 44.4504V49.0004H57.817V44.6884C57.817 43.9977 57.6443 43.4704 57.299 43.1064C56.9536 42.733 56.4823 42.5464 55.885 42.5464C55.2876 42.5464 54.8116 42.733 54.457 43.1064C54.1116 43.4704 53.939 43.9977 53.939 44.6884V49.0004H52.343V41.2864H53.939V42.1684C54.2003 41.851 54.5316 41.6037 54.933 41.4264C55.3436 41.249 55.7776 41.1604 56.235 41.1604ZM60.9028 45.1084C60.9028 44.3337 61.0614 43.6477 61.3788 43.0504C61.7054 42.453 62.1441 41.991 62.6948 41.6644C63.2548 41.3284 63.8708 41.1604 64.5428 41.1604C65.1494 41.1604 65.6768 41.2817 66.1248 41.5244C66.5821 41.7577 66.9461 42.0517 67.2168 42.4064V41.2864H68.8268V49.0004H67.2168V47.8524C66.9461 48.2164 66.5774 48.5197 66.1108 48.7624C65.6441 49.005 65.1121 49.1264 64.5148 49.1264C63.8521 49.1264 63.2454 48.9584 62.6948 48.6224C62.1441 48.277 61.7054 47.801 61.3788 47.1944C61.0614 46.5784 60.9028 45.883 60.9028 45.1084ZM67.2168 45.1364C67.2168 44.6044 67.1048 44.1424 66.8808 43.7504C66.6661 43.3584 66.3814 43.0597 66.0268 42.8544C65.6721 42.649 65.2894 42.5464 64.8788 42.5464C64.4681 42.5464 64.0854 42.649 63.7308 42.8544C63.3761 43.0504 63.0868 43.3444 62.8628 43.7364C62.6481 44.119 62.5408 44.5764 62.5408 45.1084C62.5408 45.6404 62.6481 46.107 62.8628 46.5084C63.0868 46.9097 63.3761 47.2177 63.7308 47.4324C64.0948 47.6377 64.4774 47.7404 64.8788 47.7404C65.2894 47.7404 65.6721 47.6377 66.0268 47.4324C66.3814 47.227 66.6661 46.9284 66.8808 46.5364C67.1048 46.135 67.2168 45.6684 67.2168 45.1364ZM80.261 41.1604C80.8677 41.1604 81.409 41.2864 81.885 41.5384C82.3704 41.7904 82.7484 42.1637 83.019 42.6584C83.299 43.153 83.439 43.7504 83.439 44.4504V49.0004H81.857V44.6884C81.857 43.9977 81.6844 43.4704 81.339 43.1064C80.9937 42.733 80.5224 42.5464 79.925 42.5464C79.3277 42.5464 78.8517 42.733 78.497 43.1064C78.1517 43.4704 77.979 43.9977 77.979 44.6884V49.0004H76.397V44.6884C76.397 43.9977 76.2244 43.4704 75.879 43.1064C75.5337 42.733 75.0624 42.5464 74.465 42.5464C73.8677 42.5464 73.3917 42.733 73.037 43.1064C72.6917 43.4704 72.519 43.9977 72.519 44.6884V49.0004H70.923V41.2864H72.519V42.1684C72.7804 41.851 73.1117 41.6037 73.513 41.4264C73.9144 41.249 74.3437 41.1604 74.801 41.1604C75.417 41.1604 75.9677 41.291 76.453 41.5524C76.9384 41.8137 77.3117 42.1917 77.573 42.6864C77.8064 42.2197 78.1704 41.851 78.665 41.5804C79.1597 41.3004 79.6917 41.1604 80.261 41.1604ZM92.5399 44.9544C92.5399 45.2437 92.5213 45.505 92.4839 45.7384H86.5899C86.6366 46.3544 86.8653 46.849 87.2759 47.2224C87.6866 47.5957 88.1906 47.7824 88.7879 47.7824C89.6466 47.7824 90.2533 47.423 90.6079 46.7044H92.3299C92.0966 47.4137 91.6719 47.997 91.0559 48.4544C90.4493 48.9024 89.6933 49.1264 88.7879 49.1264C88.0506 49.1264 87.3879 48.963 86.7999 48.6364C86.2213 48.3004 85.7639 47.8337 85.4279 47.2364C85.1013 46.6297 84.9379 45.9297 84.9379 45.1364C84.9379 44.343 85.0966 43.6477 85.4139 43.0504C85.7406 42.4437 86.1933 41.977 86.7719 41.6504C87.3599 41.3237 88.0319 41.1604 88.7879 41.1604C89.5159 41.1604 90.1646 41.319 90.7339 41.6364C91.3033 41.9537 91.7466 42.4017 92.0639 42.9804C92.3813 43.5497 92.5399 44.2077 92.5399 44.9544ZM90.8739 44.4504C90.8646 43.8624 90.6546 43.391 90.2439 43.0364C89.8333 42.6817 89.3246 42.5044 88.7179 42.5044C88.1673 42.5044 87.6959 42.6817 87.3039 43.0364C86.9119 43.3817 86.6786 43.853 86.6039 44.4504H90.8739Z" fill="#6B778C"/>
</svg>
