<svg width="410" height="63" viewBox="0 0 410 63" fill="none" xmlns="http://www.w3.org/2000/svg">
<g clip-path="url(#clip0_0_333)">
<path d="M4.256 15.0985C3.60267 15.0985 3.01467 14.9865 2.492 14.7625C1.96933 14.5292 1.55867 14.2025 1.26 13.7825C0.961333 13.3625 0.812 12.8725 0.812 12.3125H2.52C2.55733 12.7325 2.72067 13.0778 3.01 13.3485C3.30867 13.6192 3.724 13.7545 4.256 13.7545C4.80667 13.7545 5.236 13.6238 5.544 13.3625C5.852 13.0918 6.006 12.7465 6.006 12.3265C6.006 11.9998 5.908 11.7338 5.712 11.5285C5.52533 11.3232 5.28733 11.1645 4.998 11.0525C4.718 10.9405 4.326 10.8192 3.822 10.6885C3.18733 10.5205 2.66933 10.3525 2.268 10.1845C1.876 10.0072 1.54 9.73649 1.26 9.37249C0.98 9.00849 0.84 8.52315 0.84 7.91649C0.84 7.35649 0.98 6.86649 1.26 6.44649C1.54 6.02649 1.932 5.70449 2.436 5.48049C2.94 5.25649 3.52333 5.14449 4.186 5.14449C5.12867 5.14449 5.89867 5.38249 6.496 5.85849C7.10267 6.32515 7.43867 6.96915 7.504 7.79049H5.74C5.712 7.43582 5.544 7.13249 5.236 6.88049C4.928 6.62849 4.522 6.50249 4.018 6.50249C3.56067 6.50249 3.18733 6.61915 2.898 6.85249C2.60867 7.08582 2.464 7.42182 2.464 7.86049C2.464 8.15915 2.55267 8.40649 2.73 8.60249C2.91667 8.78915 3.15 8.93849 3.43 9.05049C3.71 9.16249 4.09267 9.28382 4.578 9.41449C5.222 9.59182 5.74467 9.76915 6.146 9.94649C6.55667 10.1238 6.902 10.3992 7.182 10.7725C7.47133 11.1365 7.616 11.6265 7.616 12.2425C7.616 12.7372 7.48067 13.2038 7.21 13.6425C6.94867 14.0812 6.56133 14.4358 6.048 14.7065C5.544 14.9678 4.94667 15.0985 4.256 15.0985ZM16.5692 10.9545C16.5692 11.2438 16.5506 11.5052 16.5132 11.7385H10.6192C10.6659 12.3545 10.8946 12.8492 11.3052 13.2225C11.7159 13.5958 12.2199 13.7825 12.8172 13.7825C13.6759 13.7825 14.2826 13.4232 14.6372 12.7045H16.3592C16.1259 13.4138 15.7012 13.9972 15.0852 14.4545C14.4786 14.9025 13.7226 15.1265 12.8172 15.1265C12.0799 15.1265 11.4172 14.9632 10.8292 14.6365C10.2506 14.3005 9.79322 13.8338 9.45722 13.2365C9.13055 12.6298 8.96722 11.9298 8.96722 11.1365C8.96722 10.3432 9.12589 9.64782 9.44322 9.05049C9.76989 8.44382 10.2226 7.97715 10.8012 7.65049C11.3892 7.32382 12.0612 7.16049 12.8172 7.16049C13.5452 7.16049 14.1939 7.31915 14.7632 7.63649C15.3326 7.95382 15.7759 8.40182 16.0932 8.98049C16.4106 9.54982 16.5692 10.2078 16.5692 10.9545ZM14.9032 10.4505C14.8939 9.86249 14.6839 9.39115 14.2732 9.03649C13.8626 8.68182 13.3539 8.50449 12.7472 8.50449C12.1966 8.50449 11.7252 8.68182 11.3332 9.03649C10.9412 9.38182 10.7079 9.85315 10.6332 10.4505H14.9032ZM19.7358 4.64049V15.0005H18.1398V4.64049H19.7358ZM28.9013 10.9545C28.9013 11.2438 28.8826 11.5052 28.8453 11.7385H22.9513C22.9979 12.3545 23.2266 12.8492 23.6373 13.2225C24.0479 13.5958 24.5519 13.7825 25.1493 13.7825C26.0079 13.7825 26.6146 13.4232 26.9693 12.7045H28.6912C28.4579 13.4138 28.0333 13.9972 27.4173 14.4545C26.8106 14.9025 26.0546 15.1265 25.1493 15.1265C24.4119 15.1265 23.7493 14.9632 23.1613 14.6365C22.5826 14.3005 22.1253 13.8338 21.7893 13.2365C21.4626 12.6298 21.2993 11.9298 21.2993 11.1365C21.2993 10.3432 21.4579 9.64782 21.7753 9.05049C22.1019 8.44382 22.5546 7.97715 23.1333 7.65049C23.7213 7.32382 24.3933 7.16049 25.1493 7.16049C25.8773 7.16049 26.5259 7.31915 27.0953 7.63649C27.6646 7.95382 28.1079 8.40182 28.4253 8.98049C28.7426 9.54982 28.9013 10.2078 28.9013 10.9545ZM27.2353 10.4505C27.2259 9.86249 27.0159 9.39115 26.6053 9.03649C26.1946 8.68182 25.6859 8.50449 25.0793 8.50449C24.5286 8.50449 24.0573 8.68182 23.6653 9.03649C23.2733 9.38182 23.0399 9.85315 22.9653 10.4505H27.2353ZM29.9399 11.1365C29.9399 10.3432 30.0985 9.64782 30.4159 9.05049C30.7425 8.44382 31.1905 7.97715 31.7599 7.65049C32.3292 7.32382 32.9825 7.16049 33.7199 7.16049C34.6532 7.16049 35.4232 7.38449 36.0299 7.83249C36.6459 8.27115 37.0612 8.90115 37.2759 9.72249H35.5539C35.4139 9.33982 35.1899 9.04115 34.8819 8.82649C34.5739 8.61182 34.1865 8.50449 33.7199 8.50449C33.0665 8.50449 32.5439 8.73782 32.1519 9.20449C31.7692 9.66182 31.5779 10.3058 31.5779 11.1365C31.5779 11.9672 31.7692 12.6158 32.1519 13.0825C32.5439 13.5492 33.0665 13.7825 33.7199 13.7825C34.6439 13.7825 35.2552 13.3765 35.5539 12.5645H37.2759C37.0519 13.3485 36.6319 13.9738 36.0159 14.4405C35.3999 14.8978 34.6345 15.1265 33.7199 15.1265C32.9825 15.1265 32.3292 14.9632 31.7599 14.6365C31.1905 14.3005 30.7425 13.8338 30.4159 13.2365C30.0985 12.6298 29.9399 11.9298 29.9399 11.1365ZM40.7284 8.58849V12.8585C40.7284 13.1478 40.7937 13.3578 40.9244 13.4885C41.0644 13.6098 41.2977 13.6705 41.6244 13.6705H42.6044V15.0005H41.3444C40.6257 15.0005 40.0751 14.8325 39.6924 14.4965C39.3097 14.1605 39.1184 13.6145 39.1184 12.8585V8.58849H38.2084V7.28649H39.1184V5.36849H40.7284V7.28649H42.6044V8.58849H40.7284ZM50.8901 5.27049C51.9261 5.27049 52.8314 5.47115 53.6061 5.87249C54.3901 6.26449 54.9921 6.83382 55.4121 7.58049C55.8414 8.31782 56.0561 9.18115 56.0561 10.1705C56.0561 11.1598 55.8414 12.0185 55.4121 12.7465C54.9921 13.4745 54.3901 14.0345 53.6061 14.4265C52.8314 14.8092 51.9261 15.0005 50.8901 15.0005H47.7121V5.27049H50.8901ZM50.8901 13.6985C52.0288 13.6985 52.9014 13.3905 53.5081 12.7745C54.1148 12.1585 54.4181 11.2905 54.4181 10.1705C54.4181 9.04115 54.1148 8.15915 53.5081 7.52449C52.9014 6.88982 52.0288 6.57249 50.8901 6.57249H49.3081V13.6985H50.8901ZM57.1059 11.1085C57.1059 10.3338 57.2646 9.64782 57.5819 9.05049C57.9086 8.45315 58.3472 7.99115 58.8979 7.66449C59.4579 7.32849 60.0739 7.16049 60.7459 7.16049C61.3526 7.16049 61.8799 7.28182 62.3279 7.52449C62.7852 7.75782 63.1492 8.05182 63.4199 8.40649V7.28649H65.0299V15.0005H63.4199V13.8525C63.1492 14.2165 62.7806 14.5198 62.3139 14.7625C61.8472 15.0052 61.3152 15.1265 60.7179 15.1265C60.0552 15.1265 59.4486 14.9585 58.8979 14.6225C58.3472 14.2772 57.9086 13.8012 57.5819 13.1945C57.2646 12.5785 57.1059 11.8832 57.1059 11.1085ZM63.4199 11.1365C63.4199 10.6045 63.3079 10.1425 63.0839 9.75049C62.8692 9.35849 62.5846 9.05982 62.2299 8.85449C61.8752 8.64915 61.4926 8.54649 61.0819 8.54649C60.6712 8.54649 60.2886 8.64915 59.9339 8.85449C59.5792 9.05049 59.2899 9.34449 59.0659 9.73649C58.8512 10.1192 58.7439 10.5765 58.7439 11.1085C58.7439 11.6405 58.8512 12.1072 59.0659 12.5085C59.2899 12.9098 59.5792 13.2178 59.9339 13.4325C60.2979 13.6378 60.6806 13.7405 61.0819 13.7405C61.4926 13.7405 61.8752 13.6378 62.2299 13.4325C62.5846 13.2272 62.8692 12.9285 63.0839 12.5365C63.3079 12.1352 63.4199 11.6685 63.4199 11.1365ZM68.9882 8.58849V12.8585C68.9882 13.1478 69.0535 13.3578 69.1842 13.4885C69.3242 13.6098 69.5575 13.6705 69.8842 13.6705H70.8642V15.0005H69.6042C68.8855 15.0005 68.3348 14.8325 67.9522 14.4965C67.5695 14.1605 67.3782 13.6145 67.3782 12.8585V8.58849H66.4682V7.28649H67.3782V5.36849H68.9882V7.28649H70.8642V8.58849H68.9882ZM79.4052 10.9545C79.4052 11.2438 79.3865 11.5052 79.3492 11.7385H73.4552C73.5018 12.3545 73.7305 12.8492 74.1412 13.2225C74.5518 13.5958 75.0558 13.7825 75.6532 13.7825C76.5118 13.7825 77.1185 13.4232 77.4732 12.7045H79.1952C78.9618 13.4138 78.5372 13.9972 77.9212 14.4545C77.3145 14.9025 76.5585 15.1265 75.6532 15.1265C74.9158 15.1265 74.2532 14.9632 73.6652 14.6365C73.0865 14.3005 72.6292 13.8338 72.2932 13.2365C71.9665 12.6298 71.8032 11.9298 71.8032 11.1365C71.8032 10.3432 71.9618 9.64782 72.2792 9.05049C72.6058 8.44382 73.0585 7.97715 73.6372 7.65049C74.2252 7.32382 74.8972 7.16049 75.6532 7.16049C76.3812 7.16049 77.0298 7.31915 77.5992 7.63649C78.1685 7.95382 78.6118 8.40182 78.9292 8.98049C79.2465 9.54982 79.4052 10.2078 79.4052 10.9545ZM77.7392 10.4505C77.7298 9.86249 77.5198 9.39115 77.1092 9.03649C76.6985 8.68182 76.1898 8.50449 75.5832 8.50449C75.0325 8.50449 74.5612 8.68182 74.1692 9.03649C73.7772 9.38182 73.5438 9.85315 73.4692 10.4505H77.7392Z" fill="#172B4D"/>
<path d="M85.488 5.49449L86.118 6.61449L84.2 7.32849L86.118 8.04249L85.474 9.19049L83.878 7.93049L84.172 9.96049H82.884L83.15 7.93049L81.554 9.21849L80.882 8.02849L82.786 7.31449L80.882 6.62849L81.526 5.48049L83.164 6.74049L82.884 4.69649H84.186L83.878 6.74049L85.488 5.49449Z" fill="#FF5353"/>
<path opacity="0.5" d="M16.228 41.2705C17.264 41.2705 18.1693 41.4712 18.944 41.8725C19.728 42.2645 20.33 42.8338 20.75 43.5805C21.1793 44.3178 21.394 45.1812 21.394 46.1705C21.394 47.1598 21.1793 48.0185 20.75 48.7465C20.33 49.4745 19.728 50.0345 18.944 50.4265C18.1693 50.8092 17.264 51.0005 16.228 51.0005H13.05V41.2705H16.228ZM16.228 49.6985C17.3667 49.6985 18.2393 49.3905 18.846 48.7745C19.4527 48.1585 19.756 47.2905 19.756 46.1705C19.756 45.0412 19.4527 44.1592 18.846 43.5245C18.2393 42.8898 17.3667 42.5725 16.228 42.5725H14.646V49.6985H16.228ZM26.1538 41.2705C27.1898 41.2705 28.0951 41.4712 28.8698 41.8725C29.6538 42.2645 30.2558 42.8338 30.6758 43.5805C31.1051 44.3178 31.3198 45.1812 31.3198 46.1705C31.3198 47.1598 31.1051 48.0185 30.6758 48.7465C30.2558 49.4745 29.6538 50.0345 28.8698 50.4265C28.0951 50.8092 27.1898 51.0005 26.1538 51.0005H22.9758V41.2705H26.1538ZM26.1538 49.6985C27.2924 49.6985 28.1651 49.3905 28.7718 48.7745C29.3784 48.1585 29.6818 47.2905 29.6818 46.1705C29.6818 45.0412 29.3784 44.1592 28.7718 43.5245C28.1651 42.8898 27.2924 42.5725 26.1538 42.5725H24.5718V49.6985H26.1538ZM38.0816 37.7845L34.2736 53.4505H32.7056L36.4996 37.7845H38.0816ZM50.341 41.2705V51.0005H48.745V44.3365L45.777 51.0005H44.671L41.689 44.3365V51.0005H40.093V41.2705H41.815L45.231 48.9005L48.633 41.2705H50.341ZM62.6867 41.2705V51.0005H61.0907V44.3365L58.1227 51.0005H57.0167L54.0347 44.3365V51.0005H52.4387V41.2705H54.1607L57.5767 48.9005L60.9787 41.2705H62.6867ZM69.9644 37.7845L66.1564 53.4505H64.5884L68.3824 37.7845H69.9644ZM79.1858 41.2705L75.9658 47.4725V51.0005H74.3698V47.4725L71.1358 41.2705H72.9138L75.1678 46.0445L77.4218 41.2705H79.1858ZM87.6623 41.2705L84.4423 47.4725V51.0005H82.8463V47.4725L79.6123 41.2705H81.3903L83.6443 46.0445L85.8983 41.2705H87.6623ZM96.1389 41.2705L92.9189 47.4725V51.0005H91.3229V47.4725L88.0889 41.2705H89.8669L92.1209 46.0445L94.3749 41.2705H96.1389ZM104.615 41.2705L101.395 47.4725V51.0005H99.7995V47.4725L96.5655 41.2705H98.3435L100.597 46.0445L102.851 41.2705H104.615Z" fill="#6B778C"/>
<rect x="0.5" y="26.5005" width="409" height="36" rx="2.5" stroke="#D4D6DE"/>
<g clip-path="url(#clip1_0_333)">
<path d="M397 51.4005V40.2005C397 39.3181 396.302 38.6005 395.444 38.6005H393.889V37.0005H392.333V38.6005H387.667V37.0005H386.111V38.6005H384.556C383.698 38.6005 383 39.3181 383 40.2005V51.4005C383 52.2829 383.698 53.0005 384.556 53.0005H395.444C396.302 53.0005 397 52.2829 397 51.4005ZM387.667 49.8005H386.111V48.2005H387.667V49.8005ZM387.667 46.6005H386.111V45.0005H387.667V46.6005ZM390.778 49.8005H389.222V48.2005H390.778V49.8005ZM390.778 46.6005H389.222V45.0005H390.778V46.6005ZM393.889 49.8005H392.333V48.2005H393.889V49.8005ZM393.889 46.6005H392.333V45.0005H393.889V46.6005ZM395.444 42.6005H384.556V41.0005H395.444V42.6005Z" fill="#8A9EBC"/>
</g>
</g>
<defs>
<clipPath id="clip0_0_333">
<rect width="410" height="63" fill="white" transform="translate(0 0.000488281)"/>
</clipPath>
<clipPath id="clip1_0_333">
<rect width="14" height="16" fill="white" transform="translate(383 37.0005)"/>
</clipPath>
</defs>
</svg>
