<svg width="410" height="63" viewBox="0 0 410 63" fill="none" xmlns="http://www.w3.org/2000/svg">
<g clip-path="url(#clip0_0_334)">
<path d="M11.298 5.27037V15.0004H9.702V8.33637L6.734 15.0004H5.628L2.646 8.33637V15.0004H1.05V5.27037H2.772L6.188 12.9004L9.59 5.27037H11.298ZM16.7417 15.1264C16.0137 15.1264 15.3557 14.963 14.7677 14.6364C14.1797 14.3004 13.7177 13.8337 13.3817 13.2364C13.0457 12.6297 12.8777 11.9297 12.8777 11.1364C12.8777 10.3524 13.0504 9.65703 13.3957 9.05037C13.741 8.4437 14.2124 7.97703 14.8097 7.65037C15.407 7.3237 16.0744 7.16037 16.8117 7.16037C17.549 7.16037 18.2164 7.3237 18.8137 7.65037C19.411 7.97703 19.8824 8.4437 20.2277 9.05037C20.573 9.65703 20.7457 10.3524 20.7457 11.1364C20.7457 11.9204 20.5684 12.6157 20.2137 13.2224C19.859 13.829 19.3737 14.3004 18.7577 14.6364C18.151 14.963 17.479 15.1264 16.7417 15.1264ZM16.7417 13.7404C17.1524 13.7404 17.535 13.6424 17.8897 13.4464C18.2537 13.2504 18.5477 12.9564 18.7717 12.5644C18.9957 12.1724 19.1077 11.6964 19.1077 11.1364C19.1077 10.5764 19.0004 10.105 18.7857 9.72237C18.571 9.33037 18.2864 9.03637 17.9317 8.84037C17.577 8.64437 17.1944 8.54637 16.7837 8.54637C16.373 8.54637 15.9904 8.64437 15.6357 8.84037C15.2904 9.03637 15.015 9.33037 14.8097 9.72237C14.6044 10.105 14.5017 10.5764 14.5017 11.1364C14.5017 11.967 14.7117 12.611 15.1317 13.0684C15.561 13.5164 16.0977 13.7404 16.7417 13.7404ZM23.9194 8.43437C24.1901 8.06103 24.5588 7.7577 25.0254 7.52437C25.5014 7.2817 26.0288 7.16037 26.6074 7.16037C27.2888 7.16037 27.9048 7.3237 28.4554 7.65037C29.0061 7.97703 29.4401 8.4437 29.7574 9.05037C30.0748 9.6477 30.2334 10.3337 30.2334 11.1084C30.2334 11.883 30.0748 12.5784 29.7574 13.1944C29.4401 13.801 29.0014 14.277 28.4414 14.6224C27.8908 14.9584 27.2794 15.1264 26.6074 15.1264C26.0101 15.1264 25.4781 15.0097 25.0114 14.7764C24.5541 14.543 24.1901 14.2444 23.9194 13.8804V15.0004H22.3234V4.64037H23.9194V8.43437ZM28.6094 11.1084C28.6094 10.5764 28.4974 10.119 28.2734 9.73637C28.0588 9.34437 27.7694 9.05037 27.4054 8.85437C27.0508 8.64903 26.6681 8.54637 26.2574 8.54637C25.8561 8.54637 25.4734 8.64903 25.1094 8.85437C24.7548 9.0597 24.4654 9.35837 24.2414 9.75037C24.0268 10.1424 23.9194 10.6044 23.9194 11.1364C23.9194 11.6684 24.0268 12.135 24.2414 12.5364C24.4654 12.9284 24.7548 13.227 25.1094 13.4324C25.4734 13.6377 25.8561 13.7404 26.2574 13.7404C26.6681 13.7404 27.0508 13.6377 27.4054 13.4324C27.7694 13.2177 28.0588 12.9097 28.2734 12.5084C28.4974 12.107 28.6094 11.6404 28.6094 11.1084ZM32.6237 6.26437C32.3344 6.26437 32.0917 6.16637 31.8957 5.97037C31.6997 5.77437 31.6017 5.5317 31.6017 5.24237C31.6017 4.95303 31.6997 4.71037 31.8957 4.51437C32.0917 4.31837 32.3344 4.22037 32.6237 4.22037C32.9037 4.22037 33.1417 4.31837 33.3377 4.51437C33.5337 4.71037 33.6317 4.95303 33.6317 5.24237C33.6317 5.5317 33.5337 5.77437 33.3377 5.97037C33.1417 6.16637 32.9037 6.26437 32.6237 6.26437ZM33.4077 7.28637V15.0004H31.8117V7.28637H33.4077ZM37.0991 4.64037V15.0004H35.5031V4.64037H37.0991ZM46.2645 10.9544C46.2645 11.2437 46.2459 11.505 46.2085 11.7384H40.3145C40.3612 12.3544 40.5899 12.849 41.0005 13.2224C41.4112 13.5957 41.9152 13.7824 42.5125 13.7824C43.3712 13.7824 43.9779 13.423 44.3325 12.7044H46.0545C45.8212 13.4137 45.3965 13.997 44.7805 14.4544C44.1739 14.9024 43.4179 15.1264 42.5125 15.1264C41.7752 15.1264 41.1125 14.963 40.5245 14.6364C39.9459 14.3004 39.4885 13.8337 39.1525 13.2364C38.8259 12.6297 38.6625 11.9297 38.6625 11.1364C38.6625 10.343 38.8212 9.6477 39.1385 9.05037C39.4652 8.4437 39.9179 7.97703 40.4965 7.65037C41.0845 7.3237 41.7565 7.16037 42.5125 7.16037C43.2405 7.16037 43.8892 7.31903 44.4585 7.63637C45.0279 7.9537 45.4712 8.4017 45.7885 8.98037C46.1059 9.5497 46.2645 10.2077 46.2645 10.9544ZM44.5985 10.4504C44.5892 9.86237 44.3792 9.39103 43.9685 9.03637C43.5579 8.6817 43.0492 8.50437 42.4425 8.50437C41.8919 8.50437 41.4205 8.6817 41.0285 9.03637C40.6365 9.3817 40.4032 9.85303 40.3285 10.4504H44.5985ZM59.4659 15.0004H57.8699L53.0679 7.73437V15.0004H51.4719V5.25637H53.0679L57.8699 12.5084V5.25637H59.4659V15.0004ZM68.5477 7.28637V15.0004H66.9517V14.0904C66.6997 14.4077 66.3684 14.6597 65.9577 14.8464C65.5564 15.0237 65.1271 15.1124 64.6697 15.1124C64.0631 15.1124 63.5171 14.9864 63.0317 14.7344C62.5557 14.4824 62.1777 14.109 61.8977 13.6144C61.6271 13.1197 61.4917 12.5224 61.4917 11.8224V7.28637H63.0737V11.5844C63.0737 12.275 63.2464 12.807 63.5917 13.1804C63.9371 13.5444 64.4084 13.7264 65.0057 13.7264C65.6031 13.7264 66.0744 13.5444 66.4197 13.1804C66.7744 12.807 66.9517 12.275 66.9517 11.5844V7.28637H68.5477ZM79.9915 7.16037C80.5982 7.16037 81.1395 7.28637 81.6155 7.53837C82.1008 7.79037 82.4788 8.1637 82.7495 8.65837C83.0295 9.15303 83.1695 9.75037 83.1695 10.4504V15.0004H81.5875V10.6884C81.5875 9.9977 81.4148 9.47037 81.0695 9.10637C80.7242 8.73303 80.2528 8.54637 79.6555 8.54637C79.0582 8.54637 78.5822 8.73303 78.2275 9.10637C77.8822 9.47037 77.7095 9.9977 77.7095 10.6884V15.0004H76.1275V10.6884C76.1275 9.9977 75.9548 9.47037 75.6095 9.10637C75.2642 8.73303 74.7928 8.54637 74.1955 8.54637C73.5982 8.54637 73.1222 8.73303 72.7675 9.10637C72.4222 9.47037 72.2495 9.9977 72.2495 10.6884V15.0004H70.6535V7.28637H72.2495V8.16837C72.5108 7.85103 72.8422 7.6037 73.2435 7.42637C73.6448 7.24903 74.0742 7.16037 74.5315 7.16037C75.1475 7.16037 75.6982 7.29103 76.1835 7.55237C76.6688 7.8137 77.0422 8.1917 77.3035 8.68637C77.5368 8.2197 77.9008 7.85103 78.3955 7.58037C78.8902 7.30037 79.4222 7.16037 79.9915 7.16037ZM86.7964 8.43437C87.0671 8.06103 87.4357 7.7577 87.9024 7.52437C88.3784 7.2817 88.9057 7.16037 89.4844 7.16037C90.1657 7.16037 90.7817 7.3237 91.3324 7.65037C91.8831 7.97703 92.3171 8.4437 92.6344 9.05037C92.9517 9.6477 93.1104 10.3337 93.1104 11.1084C93.1104 11.883 92.9517 12.5784 92.6344 13.1944C92.3171 13.801 91.8784 14.277 91.3184 14.6224C90.7677 14.9584 90.1564 15.1264 89.4844 15.1264C88.8871 15.1264 88.3551 15.0097 87.8884 14.7764C87.4311 14.543 87.0671 14.2444 86.7964 13.8804V15.0004H85.2004V4.64037H86.7964V8.43437ZM91.4864 11.1084C91.4864 10.5764 91.3744 10.119 91.1504 9.73637C90.9357 9.34437 90.6464 9.05037 90.2824 8.85437C89.9277 8.64903 89.5451 8.54637 89.1344 8.54637C88.7331 8.54637 88.3504 8.64903 87.9864 8.85437C87.6317 9.0597 87.3424 9.35837 87.1184 9.75037C86.9037 10.1424 86.7964 10.6044 86.7964 11.1364C86.7964 11.6684 86.9037 12.135 87.1184 12.5364C87.3424 12.9284 87.6317 13.227 87.9864 13.4324C88.3504 13.6377 88.7331 13.7404 89.1344 13.7404C89.5451 13.7404 89.9277 13.6377 90.2824 13.4324C90.6464 13.2177 90.9357 12.9097 91.1504 12.5084C91.3744 12.107 91.4864 11.6404 91.4864 11.1084ZM101.759 10.9544C101.759 11.2437 101.74 11.505 101.703 11.7384H95.8087C95.8553 12.3544 96.084 12.849 96.4947 13.2224C96.9053 13.5957 97.4093 13.7824 98.0067 13.7824C98.8653 13.7824 99.472 13.423 99.8267 12.7044H101.549C101.315 13.4137 100.891 13.997 100.275 14.4544C99.668 14.9024 98.912 15.1264 98.0067 15.1264C97.2693 15.1264 96.6067 14.963 96.0187 14.6364C95.44 14.3004 94.9827 13.8337 94.6467 13.2364C94.32 12.6297 94.1567 11.9297 94.1567 11.1364C94.1567 10.343 94.3153 9.6477 94.6327 9.05037C94.9593 8.4437 95.412 7.97703 95.9907 7.65037C96.5787 7.3237 97.2507 7.16037 98.0067 7.16037C98.7347 7.16037 99.3833 7.31903 99.9527 7.63637C100.522 7.9537 100.965 8.4017 101.283 8.98037C101.6 9.5497 101.759 10.2077 101.759 10.9544ZM100.093 10.4504C100.083 9.86237 99.8733 9.39103 99.4627 9.03637C99.052 8.6817 98.5433 8.50437 97.9367 8.50437C97.386 8.50437 96.9147 8.6817 96.5227 9.03637C96.1307 9.3817 95.8973 9.85303 95.8227 10.4504H100.093ZM104.925 8.40637C105.159 8.01437 105.467 7.71103 105.849 7.49637C106.241 7.27237 106.703 7.16037 107.235 7.16037V8.81237H106.829C106.204 8.81237 105.728 8.97103 105.401 9.28837C105.084 9.6057 104.925 10.1564 104.925 10.9404V15.0004H103.329V7.28637H104.925V8.40637Z" fill="#172B4D"/>
<path d="M113.488 5.49437L114.118 6.61437L112.2 7.32837L114.118 8.04237L113.474 9.19037L111.878 7.93037L112.172 9.96037H110.884L111.15 7.93037L109.554 9.21837L108.882 8.02837L110.786 7.31437L108.882 6.62837L109.526 5.48037L111.164 6.74037L110.884 4.69637H112.186L111.878 6.74037L113.488 5.49437Z" fill="#FF5E5E"/>
<rect x="0.5" y="26.5004" width="409" height="36" rx="2.5" stroke="#D4D6DE"/>
<g clip-path="url(#clip1_0_334)">
<path d="M60.705 42.7054L59.295 41.2954L54.705 45.8754L50.115 41.2954L48.705 42.7054L54.705 48.7054L60.705 42.7054Z" fill="#8A9EBC"/>
</g>
<path d="M20.568 46.6184H17.74V49.5164H16.256V46.6184H13.428V45.2744H16.256V42.3764H17.74V45.2744H20.568V46.6184ZM24.8221 48.2284C24.9155 48.695 25.1161 49.0497 25.4241 49.2924C25.7321 49.535 26.1475 49.6564 26.6701 49.6564C27.3328 49.6564 27.8181 49.395 28.1261 48.8724C28.4341 48.3497 28.5881 47.4584 28.5881 46.1984C28.3641 46.5157 28.0468 46.763 27.6361 46.9404C27.2348 47.1084 26.7961 47.1924 26.3201 47.1924C25.7135 47.1924 25.1628 47.071 24.6681 46.8284C24.1735 46.5764 23.7815 46.2077 23.4921 45.7224C23.2121 45.2277 23.0721 44.6304 23.0721 43.9304C23.0721 42.9037 23.3708 42.087 23.9681 41.4804C24.5748 40.8644 25.4055 40.5564 26.4601 40.5564C27.7295 40.5564 28.6301 40.981 29.1621 41.8304C29.7035 42.6704 29.9741 43.963 29.9741 45.7084C29.9741 46.9124 29.8715 47.897 29.6661 48.6624C29.4701 49.4277 29.1248 50.0064 28.6301 50.3984C28.1355 50.7904 27.4495 50.9864 26.5721 50.9864C25.5735 50.9864 24.8035 50.725 24.2621 50.2024C23.7208 49.6797 23.4175 49.0217 23.3521 48.2284H24.8221ZM26.6001 45.8484C27.1601 45.8484 27.5988 45.6757 27.9161 45.3304C28.2428 44.9757 28.4061 44.509 28.4061 43.9304C28.4061 43.2864 28.2335 42.787 27.8881 42.4324C27.5521 42.0684 27.0901 41.8864 26.5021 41.8864C25.9141 41.8864 25.4475 42.073 25.1021 42.4464C24.7661 42.8104 24.5981 43.291 24.5981 43.8884C24.5981 44.4577 24.7615 44.929 25.0881 45.3024C25.4241 45.6664 25.9281 45.8484 26.6001 45.8484ZM31.5109 42.2504V40.7944H34.4229V51.0004H32.8129V42.2504H31.5109Z" fill="#172B4D"/>
<path opacity="0.5" d="M93.568 46.6184H90.74V49.5164H89.256V46.6184H86.428V45.2744H89.256V42.3764H90.74V45.2744H93.568V46.6184ZM97.8221 48.2284C97.9155 48.695 98.1161 49.0497 98.4241 49.2924C98.7321 49.535 99.1475 49.6564 99.6701 49.6564C100.333 49.6564 100.818 49.395 101.126 48.8724C101.434 48.3497 101.588 47.4584 101.588 46.1984C101.364 46.5157 101.047 46.763 100.636 46.9404C100.235 47.1084 99.7961 47.1924 99.3201 47.1924C98.7135 47.1924 98.1628 47.071 97.6681 46.8284C97.1735 46.5764 96.7815 46.2077 96.4921 45.7224C96.2121 45.2277 96.0721 44.6304 96.0721 43.9304C96.0721 42.9037 96.3708 42.087 96.9681 41.4804C97.5748 40.8644 98.4055 40.5564 99.4601 40.5564C100.729 40.5564 101.63 40.981 102.162 41.8304C102.703 42.6704 102.974 43.963 102.974 45.7084C102.974 46.9124 102.871 47.897 102.666 48.6624C102.47 49.4277 102.125 50.0064 101.63 50.3984C101.135 50.7904 100.449 50.9864 99.5721 50.9864C98.5735 50.9864 97.8035 50.725 97.2621 50.2024C96.7208 49.6797 96.4175 49.0217 96.3521 48.2284H97.8221ZM99.6001 45.8484C100.16 45.8484 100.599 45.6757 100.916 45.3304C101.243 44.9757 101.406 44.509 101.406 43.9304C101.406 43.2864 101.233 42.787 100.888 42.4324C100.552 42.0684 100.09 41.8864 99.5021 41.8864C98.9141 41.8864 98.4475 42.073 98.1021 42.4464C97.7661 42.8104 97.5981 43.291 97.5981 43.8884C97.5981 44.4577 97.7615 44.929 98.0881 45.3024C98.4241 45.6664 98.9281 45.8484 99.6001 45.8484ZM104.511 42.2504V40.7944H107.423V51.0004H105.813V42.2504H104.511Z" fill="#6B778C"/>
<rect x="75" y="27.0004" width="1" height="36" fill="#D4D6DE"/>
</g>
<defs>
<clipPath id="clip0_0_334">
<rect width="410" height="63" fill="white" transform="translate(0 0.000366211)"/>
</clipPath>
<clipPath id="clip1_0_334">
<rect width="13" height="8" fill="white" transform="translate(48 41.0004)"/>
</clipPath>
</defs>
</svg>
