<svg width="60" height="83" viewBox="0 0 60 83" fill="none" xmlns="http://www.w3.org/2000/svg">
<path d="M3.80419 0C1.71173 0 0 1.71099 0 3.80381V78.482C0 80.5743 1.71104 82.2861 3.80419 82.2861H56.1974C58.2898 82.2861 59.9999 80.575 59.9999 78.482V12.1452C59.9999 12.145 59.9999 12.1447 59.9999 12.1444C60.0009 12.059 59.9891 11.9739 59.9649 11.892C59.9644 11.8909 59.9638 11.8899 59.9633 11.8888C59.9584 11.8712 59.9529 11.8537 59.9469 11.8364C59.9437 11.8309 59.9404 11.8255 59.9371 11.82C59.9322 11.8024 59.9267 11.7849 59.9207 11.7676C59.9164 11.7621 59.9121 11.7567 59.9076 11.7513C59.8966 11.7334 59.8849 11.7159 59.8726 11.6989C59.8694 11.6945 59.8661 11.6902 59.8628 11.6858C59.8517 11.6679 59.84 11.6504 59.8277 11.6334C59.8223 11.6279 59.8169 11.6225 59.8114 11.6171C59.8003 11.5991 59.7887 11.5815 59.7764 11.5643L48.4895 0.27534C48.3668 0.152858 48.2099 0.0704809 48.0394 0.0390132C48.0105 0.0342459 47.9813 0.0309483 47.952 0.0291725C47.9514 0.029172 47.9509 0.029172 47.9504 0.0291725C47.9271 0.0271697 47.9037 0.026117 47.8803 0.0260254L3.80419 0ZM3.80419 1.71453H46.9977V9.19942C46.9977 11.2917 48.7087 13.0034 50.8017 13.0034H58.2866V78.482C58.2866 79.6537 57.369 80.5717 56.1974 80.5717H3.80419C2.63256 80.5717 1.71451 79.654 1.71451 78.482V3.80381C1.71451 2.63215 2.63223 1.71453 3.80419 1.71453ZM48.7121 2.92814L55.3918 9.60674L57.0747 11.2897H50.8016C49.6299 11.2897 48.7119 10.3721 48.7119 9.20007L48.7121 2.92814ZM17.4239 11.8998C17.2558 11.9055 17.0932 11.9605 16.9562 12.058C16.8192 12.1554 16.7138 12.291 16.6533 12.4479L16.2312 13.5004H9.05933C7.65481 13.5004 6.49752 14.658 6.49752 16.0622V24.6527C6.49752 26.0573 7.65514 27.2145 9.05933 27.2145H17.6512C19.0557 27.2145 20.2118 26.0569 20.2118 24.6527V16.0622C20.2118 14.7978 19.2748 13.7372 18.0638 13.537L18.2442 13.0852C18.2992 12.9527 18.3201 12.8086 18.305 12.666C18.2899 12.5234 18.2392 12.3868 18.1577 12.2689C18.0761 12.1509 17.9663 12.0553 17.8382 11.9908C17.7101 11.9263 17.5679 11.8949 17.4246 11.8996L17.4239 11.8998ZM44.1542 14.3803C44.1487 14.3805 44.1432 14.3808 44.1378 14.3811H25.4323C25.3167 14.376 25.2012 14.3944 25.0928 14.4351C24.9844 14.4758 24.8854 14.5381 24.8018 14.6181C24.7181 14.6981 24.6515 14.7943 24.6061 14.9007C24.5606 15.0072 24.5371 15.1218 24.5371 15.2375C24.5371 15.3533 24.5606 15.4678 24.6061 15.5743C24.6515 15.6808 24.7181 15.7769 24.8018 15.8569C24.8854 15.937 24.9844 15.9992 25.0928 16.04C25.2012 16.0807 25.3167 16.099 25.4323 16.0939H44.1378C44.2533 16.1 44.3689 16.0827 44.4775 16.0429C44.5862 16.0032 44.6857 15.9419 44.77 15.8626C44.8543 15.7834 44.9217 15.688 44.9682 15.582C45.0146 15.476 45.0391 15.3618 45.0402 15.2461C45.0413 15.1304 45.019 15.0157 44.9746 14.9088C44.9302 14.802 44.8646 14.7053 44.7818 14.6245C44.699 14.5436 44.6007 14.4804 44.4929 14.4386C44.385 14.3968 44.2698 14.3772 44.1542 14.3811V14.3803ZM9.05828 15.2139H15.5426L13.0959 21.3139L11.6353 18.4804C11.5839 18.38 11.5131 18.2908 11.4271 18.2178C11.3412 18.1448 11.2416 18.0895 11.1342 18.0551C11.0268 18.0206 10.9137 18.0077 10.8013 18.017C10.6889 18.0264 10.5794 18.0578 10.4792 18.1096C10.379 18.1613 10.2899 18.2323 10.2172 18.3185C10.1444 18.4047 10.0894 18.5044 10.0553 18.6119C10.0211 18.7194 10.0086 18.8326 10.0182 18.9449C10.0279 19.0573 10.0597 19.1667 10.1117 19.2668L12.432 23.7648C12.507 23.9107 12.6224 24.0321 12.7643 24.1144C12.9063 24.1968 13.0689 24.2366 13.2329 24.2292C13.3968 24.2219 13.5553 24.1676 13.6893 24.0728C13.8233 23.9781 13.9273 23.8469 13.9889 23.6947L17.3895 15.2183H17.6504C18.1338 15.2183 18.498 15.5808 18.498 16.0659V24.6564C18.498 25.1415 18.1355 25.504 17.6504 25.504H9.05853C8.57517 25.504 8.21093 25.1415 8.21093 24.6564V16.0659C8.21093 15.5808 8.57343 15.2183 9.05853 15.2183L9.05828 15.2139ZM51.1385 17.8284C51.1331 17.8285 51.1276 17.8286 51.1221 17.8288H25.4328C25.3171 17.8236 25.2016 17.8419 25.0932 17.8826C24.9848 17.9233 24.8857 17.9856 24.8021 18.0656C24.7184 18.1456 24.6517 18.2418 24.6062 18.3482C24.5607 18.4547 24.5373 18.5693 24.5373 18.6851C24.5373 18.8009 24.5607 18.9155 24.6062 19.022C24.6517 19.1285 24.7184 19.2247 24.8021 19.3047C24.8857 19.3847 24.9848 19.447 25.0932 19.4877C25.2016 19.5284 25.3171 19.5467 25.4328 19.5415H51.1221C51.2377 19.5477 51.3533 19.5304 51.462 19.4907C51.5707 19.4509 51.6702 19.3896 51.7546 19.3104C51.839 19.2312 51.9064 19.1357 51.9529 19.0297C51.9994 18.9237 52.0239 18.8094 52.025 18.6937C52.0261 18.578 52.0037 18.4632 51.9593 18.3564C51.9149 18.2495 51.8493 18.1528 51.7664 18.0719C51.6836 17.9911 51.5853 17.9279 51.4774 17.8861C51.3694 17.8443 51.2542 17.8248 51.1385 17.8288V17.8284ZM25.4266 21.2089C25.3137 21.2085 25.2019 21.2303 25.0974 21.2731C24.993 21.316 24.8981 21.3791 24.8181 21.4588C24.7381 21.5384 24.6746 21.633 24.6313 21.7373C24.588 21.8415 24.5657 21.9533 24.5657 22.0662C24.5657 22.1791 24.588 22.2909 24.6313 22.3951C24.6746 22.4994 24.7381 22.594 24.8181 22.6737C24.8981 22.7533 24.993 22.8164 25.0974 22.8592C25.2019 22.9021 25.3137 22.924 25.4266 22.9235H51.1159C51.2288 22.924 51.3407 22.9021 51.4451 22.8592C51.5495 22.8164 51.6445 22.7533 51.7245 22.6737C51.8045 22.594 51.8679 22.4994 51.9113 22.3951C51.9546 22.2909 51.9768 22.1791 51.9768 22.0662C51.9768 21.9533 51.9546 21.8415 51.9113 21.7373C51.8679 21.633 51.8045 21.5384 51.7245 21.4588C51.6445 21.3791 51.5495 21.316 51.4451 21.2731C51.3407 21.2303 51.2288 21.2085 51.1159 21.2089H25.4266ZM51.1385 24.6194C51.1331 24.6195 51.1276 24.6196 51.1221 24.6198H25.4328C25.3171 24.6146 25.2016 24.6329 25.0932 24.6736C24.9848 24.7143 24.8857 24.7766 24.8021 24.8566C24.7184 24.9366 24.6517 25.0328 24.6062 25.1393C24.5607 25.2458 24.5373 25.3604 24.5373 25.4762C24.5373 25.592 24.5607 25.7066 24.6062 25.813C24.6517 25.9195 24.7184 26.0157 24.8021 26.0957C24.8857 26.1758 24.9848 26.238 25.0932 26.2787C25.2016 26.3194 25.3171 26.3377 25.4328 26.3326H51.1221C51.2377 26.3387 51.3533 26.3214 51.462 26.2817C51.5707 26.2419 51.6702 26.1806 51.7546 26.1014C51.839 26.0222 51.9064 25.9267 51.9529 25.8207C51.9994 25.7148 52.0239 25.6004 52.025 25.4847C52.0261 25.369 52.0037 25.2542 51.9593 25.1474C51.9149 25.0405 51.8493 24.9438 51.7664 24.8629C51.6836 24.7821 51.5853 24.7189 51.4774 24.6771C51.3694 24.6353 51.2542 24.6158 51.1385 24.6198V24.6194ZM9.05828 37.4985C7.65373 37.4985 6.49647 38.6561 6.49647 40.0603V48.6525C6.49647 50.0571 7.65405 51.2143 9.05828 51.2143H17.6501C19.0547 51.2143 20.2107 50.0567 20.2107 48.6525V40.0603C20.2107 38.6558 19.0549 37.4985 17.6501 37.4985H9.05828ZM25.4266 38.3794C25.3127 38.3772 25.1994 38.3978 25.0936 38.4399C24.9877 38.482 24.8913 38.5449 24.8099 38.6247C24.7286 38.7045 24.664 38.7997 24.6199 38.9048C24.5758 39.0099 24.553 39.1227 24.553 39.2366C24.553 39.3506 24.5758 39.4634 24.6199 39.5685C24.664 39.6736 24.7286 39.7688 24.8099 39.8486C24.8913 39.9284 24.9877 39.9912 25.0936 40.0333C25.1994 40.0754 25.3127 40.0961 25.4266 40.0939H44.1321C44.246 40.0961 44.3592 40.0754 44.4651 40.0333C44.571 39.9912 44.6674 39.9284 44.7488 39.8486C44.8301 39.7688 44.8947 39.6736 44.9388 39.5685C44.9829 39.4634 45.0056 39.3506 45.0056 39.2366C45.0056 39.1227 44.9829 39.0099 44.9388 38.9048C44.8947 38.7997 44.8301 38.7045 44.7488 38.6247C44.6674 38.5449 44.571 38.482 44.4651 38.4399C44.3592 38.3978 44.246 38.3772 44.1321 38.3794H25.4266ZM9.05828 39.213H17.6501C18.1335 39.213 18.4978 39.5756 18.4978 40.0607V48.6529C18.4978 49.138 18.1353 49.5005 17.6501 49.5005H9.05828C8.57492 49.5005 8.21063 49.138 8.21063 48.6529V40.0607C8.21063 39.5773 8.57315 39.213 9.05828 39.213ZM25.4266 41.8282C25.3137 41.8278 25.2019 41.8496 25.0974 41.8925C24.993 41.9353 24.8981 41.9984 24.8181 42.078C24.7381 42.1577 24.6746 42.2523 24.6313 42.3566C24.588 42.4608 24.5657 42.5726 24.5657 42.6855C24.5657 42.7984 24.588 42.9102 24.6313 43.0144C24.6746 43.1187 24.7381 43.2133 24.8181 43.293C24.8981 43.3726 24.993 43.4357 25.0974 43.4786C25.2019 43.5214 25.3137 43.5432 25.4266 43.5428H51.1159C51.2288 43.5432 51.3407 43.5214 51.4451 43.4786C51.5495 43.4357 51.6445 43.3726 51.7245 43.293C51.8045 43.2133 51.8679 43.1187 51.9113 43.0144C51.9546 42.9102 51.9768 42.7984 51.9768 42.6855C51.9768 42.5726 51.9546 42.4608 51.9113 42.3566C51.8679 42.2523 51.8045 42.1577 51.7245 42.078C51.6445 41.9984 51.5495 41.9353 51.4451 41.8925C51.3407 41.8496 51.2288 41.8278 51.1159 41.8282H25.4266ZM25.4266 45.21C25.3137 45.2095 25.2019 45.2313 25.0974 45.2742C24.993 45.317 24.8981 45.3802 24.8181 45.4598C24.7381 45.5395 24.6746 45.6341 24.6313 45.7383C24.588 45.8426 24.5657 45.9543 24.5657 46.0672C24.5657 46.1801 24.588 46.2919 24.6313 46.3962C24.6746 46.5004 24.7381 46.5951 24.8181 46.6747C24.8981 46.7544 24.993 46.8174 25.0974 46.8603C25.2019 46.9032 25.3137 46.925 25.4266 46.9245H51.1159C51.2288 46.925 51.3407 46.9032 51.4451 46.8603C51.5495 46.8174 51.6445 46.7544 51.7245 46.6747C51.8045 46.5951 51.8679 46.5004 51.9113 46.3962C51.9546 46.2919 51.9768 46.1801 51.9768 46.0672C51.9768 45.9543 51.9546 45.8426 51.9113 45.7383C51.8679 45.6341 51.8045 45.5395 51.7245 45.4598C51.6445 45.3802 51.5495 45.317 51.4451 45.2742C51.3407 45.2313 51.2288 45.2095 51.1159 45.21H25.4266ZM25.4266 48.6193C25.3137 48.6188 25.2019 48.6406 25.0974 48.6835C24.993 48.7263 24.8981 48.7894 24.8181 48.869C24.7381 48.9487 24.6746 49.0434 24.6313 49.1476C24.588 49.2519 24.5657 49.3636 24.5657 49.4765C24.5657 49.5894 24.588 49.7012 24.6313 49.8054C24.6746 49.9097 24.7381 50.0043 24.8181 50.084C24.8981 50.1636 24.993 50.2267 25.0974 50.2696C25.2019 50.3124 25.3137 50.3342 25.4266 50.3338H51.1159C51.2288 50.3342 51.3407 50.3124 51.4451 50.2696C51.5495 50.2267 51.6445 50.1636 51.7245 50.084C51.8045 50.0043 51.8679 49.9097 51.9113 49.8054C51.9546 49.7012 51.9768 49.5894 51.9768 49.4765C51.9768 49.3636 51.9546 49.2519 51.9113 49.1476C51.8679 49.0434 51.8045 48.9487 51.7245 48.869C51.6445 48.7894 51.5495 48.7263 51.4451 48.6835C51.3407 48.6406 51.2288 48.6188 51.1159 48.6193H25.4266ZM9.05828 61.4995C7.65373 61.4995 6.49647 62.6572 6.49647 64.0614V72.652C6.49647 74.0565 7.65405 75.2138 9.05828 75.2138H17.6501C19.0547 75.2138 20.2107 74.0562 20.2107 72.652V64.0614C20.2107 62.6568 19.0549 61.4995 17.6501 61.4995H9.05828ZM25.4266 62.3787C25.3137 62.3782 25.2019 62.4001 25.0974 62.4429C24.993 62.4858 24.8981 62.5489 24.8181 62.6285C24.7381 62.7082 24.6746 62.8028 24.6313 62.907C24.588 63.0113 24.5657 63.1231 24.5657 63.236C24.5657 63.3489 24.588 63.4606 24.6313 63.5649C24.6746 63.6691 24.7381 63.7638 24.8181 63.8434C24.8981 63.9231 24.993 63.9862 25.0974 64.029C25.2019 64.0719 25.3137 64.0937 25.4266 64.0932H44.1321C44.245 64.0937 44.3568 64.0719 44.4613 64.029C44.5657 63.9862 44.6606 63.9231 44.7406 63.8434C44.8206 63.7638 44.8841 63.6691 44.9274 63.5649C44.9707 63.4606 44.993 63.3489 44.993 63.236C44.993 63.1231 44.9707 63.0113 44.9274 62.907C44.8841 62.8028 44.8206 62.7082 44.7406 62.6285C44.6606 62.5489 44.5657 62.4858 44.4613 62.4429C44.3568 62.4001 44.245 62.3782 44.1321 62.3787H25.4266ZM9.05828 63.2141H17.6501C18.1335 63.2141 18.4978 63.5766 18.4978 64.0617V72.6524C18.4978 73.1375 18.1353 73.5 17.6501 73.5H9.05828C8.57492 73.5 8.21063 73.1375 8.21063 72.6524V64.0617C8.21063 63.5783 8.57315 63.2141 9.05828 63.2141ZM25.4266 65.8272C25.3127 65.825 25.1994 65.8456 25.0936 65.8877C24.9877 65.9298 24.8913 65.9926 24.8099 66.0725C24.7286 66.1523 24.664 66.2475 24.6199 66.3526C24.5758 66.4577 24.553 66.5705 24.553 66.6844C24.553 66.7984 24.5758 66.9112 24.6199 67.0163C24.664 67.1213 24.7286 67.2166 24.8099 67.2964C24.8913 67.3762 24.9877 67.439 25.0936 67.4811C25.1994 67.5232 25.3127 67.5438 25.4266 67.5417H51.1159C51.2299 67.5438 51.3431 67.5232 51.449 67.4811C51.5549 67.439 51.6513 67.3762 51.7326 67.2964C51.814 67.2166 51.8786 67.1213 51.9227 67.0163C51.9668 66.9112 51.9895 66.7984 51.9895 66.6844C51.9895 66.5705 51.9668 66.4577 51.9227 66.3526C51.8786 66.2475 51.814 66.1523 51.7326 66.0725C51.6513 65.9926 51.5549 65.9298 51.449 65.8877C51.3431 65.8456 51.2299 65.825 51.1159 65.8272H25.4266ZM25.4266 69.2091C25.3127 69.207 25.1995 69.2277 25.0937 69.2698C24.9878 69.3119 24.8914 69.3747 24.8101 69.4545C24.7288 69.5343 24.6642 69.6295 24.6201 69.7346C24.5761 69.8397 24.5534 69.9525 24.5534 70.0664C24.5534 70.1803 24.5761 70.2931 24.6201 70.3982C24.6642 70.5032 24.7288 70.5984 24.8101 70.6782C24.8914 70.758 24.9878 70.8209 25.0937 70.863C25.1995 70.9051 25.3127 70.9257 25.4266 70.9236H51.1159C51.2298 70.9257 51.343 70.9051 51.4489 70.863C51.5547 70.8209 51.6511 70.758 51.7324 70.6782C51.8137 70.5984 51.8783 70.5032 51.9224 70.3982C51.9665 70.2931 51.9892 70.1803 51.9892 70.0664C51.9892 69.9525 51.9665 69.8397 51.9224 69.7346C51.8783 69.6295 51.8137 69.5343 51.7324 69.4545C51.6511 69.3747 51.5547 69.3119 51.4489 69.2698C51.343 69.2277 51.2298 69.207 51.1159 69.2091H25.4266ZM25.4266 72.6185C25.314 72.6185 25.2025 72.6407 25.0985 72.6837C24.9944 72.7268 24.8999 72.7899 24.8203 72.8695C24.7406 72.9492 24.6775 73.0437 24.6344 73.1477C24.5913 73.2517 24.5691 73.3632 24.5691 73.4758C24.5691 73.5884 24.5913 73.6999 24.6344 73.804C24.6775 73.908 24.7406 74.0025 24.8203 74.0821C24.8999 74.1617 24.9944 74.2249 25.0985 74.2679C25.2025 74.311 25.314 74.3331 25.4266 74.3331H51.1159C51.2285 74.3331 51.34 74.311 51.4441 74.2679C51.5481 74.2249 51.6426 74.1617 51.7223 74.0821C51.8019 74.0025 51.8651 73.908 51.9082 73.804C51.9512 73.6999 51.9734 73.5884 51.9734 73.4758C51.9734 73.3632 51.9512 73.2517 51.9082 73.1477C51.8651 73.0437 51.8019 72.9492 51.7223 72.8695C51.6426 72.7899 51.5481 72.7268 51.4441 72.6837C51.34 72.6407 51.2285 72.6185 51.1159 72.6185H25.4266Z" fill="url(#paint0_linear_0_431)"/>
<defs>
<linearGradient id="paint0_linear_0_431" x1="30" y1="0" x2="30" y2="82.2861" gradientUnits="userSpaceOnUse">
<stop stop-color="#316BBF"/>
<stop offset="1" stop-color="#7A5CD0"/>
</linearGradient>
</defs>
</svg>
