<svg width="410" height="63" viewBox="0 0 410 63" fill="none" xmlns="http://www.w3.org/2000/svg">
<path d="M5.488 15.0984C4.58267 15.0984 3.74733 14.8884 2.982 14.4684C2.226 14.039 1.624 13.4464 1.176 12.6904C0.737333 11.925 0.518 11.0664 0.518 10.1144C0.518 9.16237 0.737333 8.30837 1.176 7.55237C1.624 6.79637 2.226 6.20837 2.982 5.78837C3.74733 5.35903 4.58267 5.14437 5.488 5.14437C6.40267 5.14437 7.238 5.35903 7.994 5.78837C8.75933 6.20837 9.36133 6.79637 9.8 7.55237C10.2387 8.30837 10.458 9.16237 10.458 10.1144C10.458 11.0664 10.2387 11.925 9.8 12.6904C9.36133 13.4464 8.75933 14.039 7.994 14.4684C7.238 14.8884 6.40267 15.0984 5.488 15.0984ZM5.488 13.7124C6.132 13.7124 6.706 13.5677 7.21 13.2784C7.714 12.9797 8.106 12.5597 8.386 12.0184C8.67533 11.4677 8.82 10.833 8.82 10.1144C8.82 9.3957 8.67533 8.7657 8.386 8.22437C8.106 7.68303 7.714 7.2677 7.21 6.97837C6.706 6.68903 6.132 6.54437 5.488 6.54437C4.844 6.54437 4.27 6.68903 3.766 6.97837C3.262 7.2677 2.86533 7.68303 2.576 8.22437C2.296 8.7657 2.156 9.3957 2.156 10.1144C2.156 10.833 2.296 11.4677 2.576 12.0184C2.86533 12.5597 3.262 12.9797 3.766 13.2784C4.27 13.5677 4.844 13.7124 5.488 13.7124ZM13.6245 8.40637C13.8578 8.01437 14.1658 7.71103 14.5485 7.49637C14.9405 7.27237 15.4025 7.16037 15.9345 7.16037V8.81237H15.5285C14.9032 8.81237 14.4272 8.97103 14.1005 9.28837C13.7832 9.6057 13.6245 10.1564 13.6245 10.9404V15.0004H12.0285V7.28637H13.6245V8.40637ZM20.5096 7.16037C21.1069 7.16037 21.6342 7.2817 22.0916 7.52437C22.5582 7.7577 22.9222 8.0517 23.1836 8.40637V7.28637H24.7936V15.1264C24.7936 15.8357 24.6442 16.4657 24.3456 17.0164C24.0469 17.5764 23.6129 18.015 23.0436 18.3324C22.4836 18.6497 21.8116 18.8084 21.0276 18.8084C19.9822 18.8084 19.1142 18.561 18.4236 18.0664C17.7329 17.581 17.3409 16.9184 17.2476 16.0784H18.8296C18.9509 16.4797 19.2076 16.8017 19.5996 17.0444C20.0009 17.2964 20.4769 17.4224 21.0276 17.4224C21.6716 17.4224 22.1896 17.2264 22.5816 16.8344C22.9829 16.4424 23.1836 15.873 23.1836 15.1264V13.8384C22.9129 14.2024 22.5442 14.5104 22.0776 14.7624C21.6202 15.005 21.0976 15.1264 20.5096 15.1264C19.8376 15.1264 19.2216 14.9584 18.6616 14.6224C18.1109 14.277 17.6722 13.801 17.3456 13.1944C17.0282 12.5784 16.8696 11.883 16.8696 11.1084C16.8696 10.3337 17.0282 9.6477 17.3456 9.05037C17.6722 8.45303 18.1109 7.99103 18.6616 7.66437C19.2216 7.32837 19.8376 7.16037 20.5096 7.16037ZM23.1836 11.1364C23.1836 10.6044 23.0716 10.1424 22.8476 9.75037C22.6329 9.35837 22.3482 9.0597 21.9936 8.85437C21.6389 8.64903 21.2562 8.54637 20.8456 8.54637C20.4349 8.54637 20.0522 8.64903 19.6976 8.85437C19.3429 9.05037 19.0536 9.34437 18.8296 9.73637C18.6149 10.119 18.5076 10.5764 18.5076 11.1084C18.5076 11.6404 18.6149 12.107 18.8296 12.5084C19.0536 12.9097 19.3429 13.2177 19.6976 13.4324C20.0616 13.6377 20.4442 13.7404 20.8456 13.7404C21.2562 13.7404 21.6389 13.6377 21.9936 13.4324C22.3482 13.227 22.6329 12.9284 22.8476 12.5364C23.0716 12.135 23.1836 11.6684 23.1836 11.1364ZM26.3578 11.1084C26.3578 10.3337 26.5165 9.6477 26.8338 9.05037C27.1605 8.45303 27.5992 7.99103 28.1498 7.66437C28.7098 7.32837 29.3258 7.16037 29.9978 7.16037C30.6045 7.16037 31.1318 7.2817 31.5798 7.52437C32.0372 7.7577 32.4012 8.0517 32.6718 8.40637V7.28637H34.2818V15.0004H32.6718V13.8524C32.4012 14.2164 32.0325 14.5197 31.5658 14.7624C31.0992 15.005 30.5672 15.1264 29.9698 15.1264C29.3072 15.1264 28.7005 14.9584 28.1498 14.6224C27.5992 14.277 27.1605 13.801 26.8338 13.1944C26.5165 12.5784 26.3578 11.883 26.3578 11.1084ZM32.6718 11.1364C32.6718 10.6044 32.5598 10.1424 32.3358 9.75037C32.1212 9.35837 31.8365 9.0597 31.4818 8.85437C31.1272 8.64903 30.7445 8.54637 30.3338 8.54637C29.9232 8.54637 29.5405 8.64903 29.1858 8.85437C28.8312 9.05037 28.5418 9.34437 28.3178 9.73637C28.1032 10.119 27.9958 10.5764 27.9958 11.1084C27.9958 11.6404 28.1032 12.107 28.3178 12.5084C28.5418 12.9097 28.8312 13.2177 29.1858 13.4324C29.5498 13.6377 29.9325 13.7404 30.3338 13.7404C30.7445 13.7404 31.1272 13.6377 31.4818 13.4324C31.8365 13.227 32.1212 12.9284 32.3358 12.5364C32.5598 12.135 32.6718 11.6684 32.6718 11.1364ZM40.2701 7.16037C40.8768 7.16037 41.4181 7.28637 41.8941 7.53837C42.3795 7.79037 42.7575 8.1637 43.0281 8.65837C43.2988 9.15303 43.4341 9.75037 43.4341 10.4504V15.0004H41.8521V10.6884C41.8521 9.9977 41.6795 9.47037 41.3341 9.10637C40.9888 8.73303 40.5175 8.54637 39.9201 8.54637C39.3228 8.54637 38.8468 8.73303 38.4921 9.10637C38.1468 9.47037 37.9741 9.9977 37.9741 10.6884V15.0004H36.3781V7.28637H37.9741V8.16837C38.2355 7.85103 38.5668 7.6037 38.9681 7.42637C39.3788 7.24903 39.8128 7.16037 40.2701 7.16037ZM46.2819 6.26437C45.9926 6.26437 45.7499 6.16637 45.5539 5.97037C45.3579 5.77437 45.2599 5.5317 45.2599 5.24237C45.2599 4.95303 45.3579 4.71037 45.5539 4.51437C45.7499 4.31837 45.9926 4.22037 46.2819 4.22037C46.5619 4.22037 46.7999 4.31837 46.9959 4.51437C47.1919 4.71037 47.2899 4.95303 47.2899 5.24237C47.2899 5.5317 47.1919 5.77437 46.9959 5.97037C46.7999 6.16637 46.5619 6.26437 46.2819 6.26437ZM47.0659 7.28637V15.0004H45.4699V7.28637H47.0659ZM50.5753 13.6984H54.0753V15.0004H48.7273V13.6984L52.2413 8.58837H48.7273V7.28637H54.0753V8.58837L50.5753 13.6984ZM55.2192 11.1084C55.2192 10.3337 55.3778 9.6477 55.6952 9.05037C56.0218 8.45303 56.4605 7.99103 57.0112 7.66437C57.5712 7.32837 58.1872 7.16037 58.8592 7.16037C59.4658 7.16037 59.9932 7.2817 60.4412 7.52437C60.8985 7.7577 61.2625 8.0517 61.5332 8.40637V7.28637H63.1432V15.0004H61.5332V13.8524C61.2625 14.2164 60.8938 14.5197 60.4272 14.7624C59.9605 15.005 59.4285 15.1264 58.8312 15.1264C58.1685 15.1264 57.5618 14.9584 57.0112 14.6224C56.4605 14.277 56.0218 13.801 55.6952 13.1944C55.3778 12.5784 55.2192 11.883 55.2192 11.1084ZM61.5332 11.1364C61.5332 10.6044 61.4212 10.1424 61.1972 9.75037C60.9825 9.35837 60.6978 9.0597 60.3432 8.85437C59.9885 8.64903 59.6058 8.54637 59.1952 8.54637C58.7845 8.54637 58.4018 8.64903 58.0472 8.85437C57.6925 9.05037 57.4032 9.34437 57.1792 9.73637C56.9645 10.119 56.8572 10.5764 56.8572 11.1084C56.8572 11.6404 56.9645 12.107 57.1792 12.5084C57.4032 12.9097 57.6925 13.2177 58.0472 13.4324C58.4112 13.6377 58.7938 13.7404 59.1952 13.7404C59.6058 13.7404 59.9885 13.6377 60.3432 13.4324C60.6978 13.227 60.9825 12.9284 61.1972 12.5364C61.4212 12.135 61.5332 11.6684 61.5332 11.1364ZM67.1015 8.58837V12.8584C67.1015 13.1477 67.1668 13.3577 67.2975 13.4884C67.4375 13.6097 67.6708 13.6704 67.9975 13.6704H68.9775V15.0004H67.7175C66.9988 15.0004 66.4481 14.8324 66.0655 14.4964C65.6828 14.1604 65.4915 13.6144 65.4915 12.8584V8.58837H64.5815V7.28637H65.4915V5.36837H67.1015V7.28637H68.9775V8.58837H67.1015ZM71.2604 6.26437C70.9711 6.26437 70.7284 6.16637 70.5324 5.97037C70.3364 5.77437 70.2384 5.5317 70.2384 5.24237C70.2384 4.95303 70.3364 4.71037 70.5324 4.51437C70.7284 4.31837 70.9711 4.22037 71.2604 4.22037C71.5404 4.22037 71.7784 4.31837 71.9744 4.51437C72.1704 4.71037 72.2684 4.95303 72.2684 5.24237C72.2684 5.5317 72.1704 5.77437 71.9744 5.97037C71.7784 6.16637 71.5404 6.26437 71.2604 6.26437ZM72.0444 7.28637V15.0004H70.4484V7.28637H72.0444ZM77.4858 15.1264C76.7578 15.1264 76.0998 14.963 75.5118 14.6364C74.9238 14.3004 74.4618 13.8337 74.1258 13.2364C73.7898 12.6297 73.6218 11.9297 73.6218 11.1364C73.6218 10.3524 73.7945 9.65703 74.1398 9.05037C74.4852 8.4437 74.9565 7.97703 75.5538 7.65037C76.1512 7.3237 76.8185 7.16037 77.5558 7.16037C78.2932 7.16037 78.9605 7.3237 79.5578 7.65037C80.1552 7.97703 80.6265 8.4437 80.9718 9.05037C81.3172 9.65703 81.4898 10.3524 81.4898 11.1364C81.4898 11.9204 81.3125 12.6157 80.9578 13.2224C80.6032 13.829 80.1178 14.3004 79.5018 14.6364C78.8952 14.963 78.2232 15.1264 77.4858 15.1264ZM77.4858 13.7404C77.8965 13.7404 78.2792 13.6424 78.6338 13.4464C78.9978 13.2504 79.2918 12.9564 79.5158 12.5644C79.7398 12.1724 79.8518 11.6964 79.8518 11.1364C79.8518 10.5764 79.7445 10.105 79.5298 9.72237C79.3152 9.33037 79.0305 9.03637 78.6758 8.84037C78.3212 8.64437 77.9385 8.54637 77.5278 8.54637C77.1172 8.54637 76.7345 8.64437 76.3798 8.84037C76.0345 9.03637 75.7592 9.33037 75.5538 9.72237C75.3485 10.105 75.2458 10.5764 75.2458 11.1364C75.2458 11.967 75.4558 12.611 75.8758 13.0684C76.3052 13.5164 76.8418 13.7404 77.4858 13.7404ZM86.9596 7.16037C87.5662 7.16037 88.1076 7.28637 88.5836 7.53837C89.0689 7.79037 89.4469 8.1637 89.7176 8.65837C89.9882 9.15303 90.1236 9.75037 90.1236 10.4504V15.0004H88.5416V10.6884C88.5416 9.9977 88.3689 9.47037 88.0236 9.10637C87.6782 8.73303 87.2069 8.54637 86.6096 8.54637C86.0122 8.54637 85.5362 8.73303 85.1816 9.10637C84.8362 9.47037 84.6636 9.9977 84.6636 10.6884V15.0004H83.0676V7.28637H84.6636V8.16837C84.9249 7.85103 85.2562 7.6037 85.6576 7.42637C86.0682 7.24903 86.5022 7.16037 86.9596 7.16037Z" fill="#172B4D"/>
<path d="M97.488 5.49437L98.118 6.61437L96.2 7.32837L98.118 8.04237L97.474 9.19037L95.878 7.93037L96.172 9.96037H94.884L95.15 7.93037L93.554 9.21837L92.882 8.02837L94.786 7.31437L92.882 6.62837L93.526 5.48037L95.164 6.74037L94.884 4.69637H96.186L95.878 6.74037L97.488 5.49437Z" fill="#FF5E5E"/>
<rect x="0.5" y="26.5004" width="409" height="36" rx="2.5" stroke="#D4D6DE"/>
<path opacity="0.5" d="M14.646 40.5584V43.4144H18.006V44.7164H14.646V47.6984H18.426V49.0004H13.05V39.2564H18.426V40.5584H14.646ZM24.2838 41.1604C24.8905 41.1604 25.4318 41.2864 25.9078 41.5384C26.3931 41.7904 26.7711 42.1637 27.0418 42.6584C27.3125 43.153 27.4478 43.7504 27.4478 44.4504V49.0004H25.8658V44.6884C25.8658 43.9977 25.6931 43.4704 25.3478 43.1064C25.0025 42.733 24.5311 42.5464 23.9338 42.5464C23.3365 42.5464 22.8605 42.733 22.5058 43.1064C22.1605 43.4704 21.9878 43.9977 21.9878 44.6884V49.0004H20.3918V41.2864H21.9878V42.1684C22.2491 41.851 22.5805 41.6037 22.9818 41.4264C23.3925 41.249 23.8265 41.1604 24.2838 41.1604ZM31.3456 42.5884V46.8584C31.3456 47.1477 31.4109 47.3577 31.5416 47.4884C31.6816 47.6097 31.9149 47.6704 32.2416 47.6704H33.2216V49.0004H31.9616C31.2429 49.0004 30.6923 48.8324 30.3096 48.4964C29.9269 48.1604 29.7356 47.6144 29.7356 46.8584V42.5884H28.8256V41.2864H29.7356V39.3684H31.3456V41.2864H33.2216V42.5884H31.3456ZM41.7626 44.9544C41.7626 45.2437 41.7439 45.505 41.7066 45.7384H35.8126C35.8592 46.3544 36.0879 46.849 36.4986 47.2224C36.9092 47.5957 37.4132 47.7824 38.0106 47.7824C38.8692 47.7824 39.4759 47.423 39.8306 46.7044H41.5526C41.3192 47.4137 40.8946 47.997 40.2786 48.4544C39.6719 48.9024 38.9159 49.1264 38.0106 49.1264C37.2732 49.1264 36.6106 48.963 36.0226 48.6364C35.4439 48.3004 34.9866 47.8337 34.6506 47.2364C34.3239 46.6297 34.1606 45.9297 34.1606 45.1364C34.1606 44.343 34.3192 43.6477 34.6366 43.0504C34.9632 42.4437 35.4159 41.977 35.9946 41.6504C36.5826 41.3237 37.2546 41.1604 38.0106 41.1604C38.7386 41.1604 39.3872 41.319 39.9566 41.6364C40.5259 41.9537 40.9692 42.4017 41.2866 42.9804C41.6039 43.5497 41.7626 44.2077 41.7626 44.9544ZM40.0966 44.4504C40.0872 43.8624 39.8772 43.391 39.4666 43.0364C39.0559 42.6817 38.5472 42.5044 37.9406 42.5044C37.3899 42.5044 36.9186 42.6817 36.5266 43.0364C36.1346 43.3817 35.9012 43.853 35.8266 44.4504H40.0966ZM44.9292 42.4064C45.1625 42.0144 45.4705 41.711 45.8532 41.4964C46.2452 41.2724 46.7072 41.1604 47.2392 41.1604V42.8124H46.8332C46.2079 42.8124 45.7319 42.971 45.4052 43.2884C45.0879 43.6057 44.9292 44.1564 44.9292 44.9404V49.0004H43.3332V41.2864H44.9292V42.4064ZM56.235 41.1604C56.8416 41.1604 57.383 41.2864 57.859 41.5384C58.3443 41.7904 58.7223 42.1637 58.993 42.6584C59.2636 43.153 59.399 43.7504 59.399 44.4504V49.0004H57.817V44.6884C57.817 43.9977 57.6443 43.4704 57.299 43.1064C56.9536 42.733 56.4823 42.5464 55.885 42.5464C55.2876 42.5464 54.8116 42.733 54.457 43.1064C54.1116 43.4704 53.939 43.9977 53.939 44.6884V49.0004H52.343V41.2864H53.939V42.1684C54.2003 41.851 54.5316 41.6037 54.933 41.4264C55.3436 41.249 55.7776 41.1604 56.235 41.1604ZM60.9028 45.1084C60.9028 44.3337 61.0614 43.6477 61.3788 43.0504C61.7054 42.453 62.1441 41.991 62.6948 41.6644C63.2548 41.3284 63.8708 41.1604 64.5428 41.1604C65.1494 41.1604 65.6768 41.2817 66.1248 41.5244C66.5821 41.7577 66.9461 42.0517 67.2168 42.4064V41.2864H68.8268V49.0004H67.2168V47.8524C66.9461 48.2164 66.5774 48.5197 66.1108 48.7624C65.6441 49.005 65.1121 49.1264 64.5148 49.1264C63.8521 49.1264 63.2454 48.9584 62.6948 48.6224C62.1441 48.277 61.7054 47.801 61.3788 47.1944C61.0614 46.5784 60.9028 45.883 60.9028 45.1084ZM67.2168 45.1364C67.2168 44.6044 67.1048 44.1424 66.8808 43.7504C66.6661 43.3584 66.3814 43.0597 66.0268 42.8544C65.6721 42.649 65.2894 42.5464 64.8788 42.5464C64.4681 42.5464 64.0854 42.649 63.7308 42.8544C63.3761 43.0504 63.0868 43.3444 62.8628 43.7364C62.6481 44.119 62.5408 44.5764 62.5408 45.1084C62.5408 45.6404 62.6481 46.107 62.8628 46.5084C63.0868 46.9097 63.3761 47.2177 63.7308 47.4324C64.0948 47.6377 64.4774 47.7404 64.8788 47.7404C65.2894 47.7404 65.6721 47.6377 66.0268 47.4324C66.3814 47.227 66.6661 46.9284 66.8808 46.5364C67.1048 46.135 67.2168 45.6684 67.2168 45.1364ZM80.261 41.1604C80.8677 41.1604 81.409 41.2864 81.885 41.5384C82.3704 41.7904 82.7484 42.1637 83.019 42.6584C83.299 43.153 83.439 43.7504 83.439 44.4504V49.0004H81.857V44.6884C81.857 43.9977 81.6844 43.4704 81.339 43.1064C80.9937 42.733 80.5224 42.5464 79.925 42.5464C79.3277 42.5464 78.8517 42.733 78.497 43.1064C78.1517 43.4704 77.979 43.9977 77.979 44.6884V49.0004H76.397V44.6884C76.397 43.9977 76.2244 43.4704 75.879 43.1064C75.5337 42.733 75.0624 42.5464 74.465 42.5464C73.8677 42.5464 73.3917 42.733 73.037 43.1064C72.6917 43.4704 72.519 43.9977 72.519 44.6884V49.0004H70.923V41.2864H72.519V42.1684C72.7804 41.851 73.1117 41.6037 73.513 41.4264C73.9144 41.249 74.3437 41.1604 74.801 41.1604C75.417 41.1604 75.9677 41.291 76.453 41.5524C76.9384 41.8137 77.3117 42.1917 77.573 42.6864C77.8064 42.2197 78.1704 41.851 78.665 41.5804C79.1597 41.3004 79.6917 41.1604 80.261 41.1604ZM92.5399 44.9544C92.5399 45.2437 92.5213 45.505 92.4839 45.7384H86.5899C86.6366 46.3544 86.8653 46.849 87.2759 47.2224C87.6866 47.5957 88.1906 47.7824 88.7879 47.7824C89.6466 47.7824 90.2533 47.423 90.6079 46.7044H92.3299C92.0966 47.4137 91.6719 47.997 91.0559 48.4544C90.4493 48.9024 89.6933 49.1264 88.7879 49.1264C88.0506 49.1264 87.3879 48.963 86.7999 48.6364C86.2213 48.3004 85.7639 47.8337 85.4279 47.2364C85.1013 46.6297 84.9379 45.9297 84.9379 45.1364C84.9379 44.343 85.0966 43.6477 85.4139 43.0504C85.7406 42.4437 86.1933 41.977 86.7719 41.6504C87.3599 41.3237 88.0319 41.1604 88.7879 41.1604C89.5159 41.1604 90.1646 41.319 90.7339 41.6364C91.3033 41.9537 91.7466 42.4017 92.0639 42.9804C92.3813 43.5497 92.5399 44.2077 92.5399 44.9544ZM90.8739 44.4504C90.8646 43.8624 90.6546 43.391 90.2439 43.0364C89.8333 42.6817 89.3246 42.5044 88.7179 42.5044C88.1673 42.5044 87.6959 42.6817 87.3039 43.0364C86.9119 43.3817 86.6786 43.853 86.6039 44.4504H90.8739Z" fill="#6B778C"/>
</svg>
