<svg width="73" height="73" viewBox="0 0 73 73" fill="none" xmlns="http://www.w3.org/2000/svg">
<path fill-rule="evenodd" clip-rule="evenodd" d="M4.5625 73H68.4375C71.0229 73 73 71.0229 73 68.4375V13.6875C73 12.775 72.3917 12.1667 71.4792 12.1667H6.08333C5.17083 12.1667 4.5625 12.775 4.5625 13.6875C4.5625 14.6 5.17083 15.2083 6.08333 15.2083H69.9583V68.4375C69.9583 69.35 69.35 69.9583 68.4375 69.9583H4.5625C3.65 69.9583 3.04167 69.35 3.04167 68.4375V4.5625C3.04167 3.65 3.65 3.04167 4.5625 3.04167H68.4375C69.35 3.04167 69.9583 3.65 69.9583 4.5625V9.125C69.9583 10.0375 70.5667 10.6458 71.4792 10.6458C72.3917 10.6458 73 10.0375 73 9.125V4.5625C73 1.97708 71.0229 0 68.4375 0H4.5625C1.97708 0 0 1.97708 0 4.5625V68.4375C0 71.0229 1.97708 73 4.5625 73ZM6.08333 9.12552H12.1667C13.0792 9.12552 13.6875 8.51719 13.6875 7.60469C13.6875 6.69219 13.0792 6.08386 12.1667 6.08386H6.08333C5.17083 6.08386 4.5625 6.69219 4.5625 7.60469C4.5625 8.51719 5.17083 9.12552 6.08333 9.12552ZM65.3958 9.12552C66.2358 9.12552 66.9167 8.44462 66.9167 7.60469C66.9167 6.76476 66.2358 6.08386 65.3958 6.08386C64.5559 6.08386 63.875 6.76476 63.875 7.60469C63.875 8.44462 64.5559 9.12552 65.3958 9.12552ZM60.8333 7.60469C60.8333 8.44462 60.1524 9.12552 59.3125 9.12552C58.4725 9.12552 57.7916 8.44462 57.7916 7.60469C57.7916 6.76476 58.4725 6.08386 59.3125 6.08386C60.1524 6.08386 60.8333 6.76476 60.8333 7.60469ZM53.2292 9.12552C54.0691 9.12552 54.75 8.44462 54.75 7.60469C54.75 6.76476 54.0691 6.08386 53.2292 6.08386C52.3893 6.08386 51.7084 6.76476 51.7084 7.60469C51.7084 8.44462 52.3893 9.12552 53.2292 9.12552ZM6.08337 63.8755C6.08337 64.788 6.6917 65.3964 7.6042 65.3964C8.5167 65.3964 9.12503 64.788 9.12503 63.8755V57.7922C9.12503 56.8797 8.5167 56.2714 7.6042 56.2714C6.6917 56.2714 6.08337 56.8797 6.08337 57.7922V63.8755ZM12.1667 65.3964C11.2542 65.3964 10.6459 64.788 10.6459 63.8755V57.7922C10.6459 56.8797 11.2542 56.2714 12.1667 56.2714C13.0792 56.2714 13.6875 56.8797 13.6875 57.7922V63.8755C13.6875 64.788 13.0792 65.3964 12.1667 65.3964ZM33.0021 59.313H65.3958C66.3083 59.313 66.9166 59.9213 66.9166 60.8338C66.9166 61.7463 66.3083 62.3546 65.3958 62.3546H33.0021C32.85 62.8109 32.3937 63.115 31.9375 63.4192C30.5687 64.3317 28.5916 63.8755 27.8312 62.3546H18.25C17.3375 62.3546 16.7291 61.7463 16.7291 60.8338C16.7291 59.9213 17.3375 59.313 18.25 59.313H27.8312C27.9833 58.8567 28.4396 58.5525 28.8958 58.2484C30.2646 57.3359 32.2416 57.7921 33.0021 59.313ZM36.5 53.2297C27.2229 53.2297 19.7709 45.7776 19.7709 36.5005C19.7709 27.2234 27.2229 19.7714 36.5 19.7714C45.7771 19.7714 53.2292 27.2234 53.2292 36.5005C53.2292 45.7776 45.7771 53.2297 36.5 53.2297ZM36.5 22.813C28.8959 22.813 22.8125 28.8964 22.8125 36.5005C22.8125 44.1047 28.8959 50.188 36.5 50.188C44.1042 50.188 50.1875 44.1047 50.1875 36.5005C50.1875 28.8964 44.1042 22.813 36.5 22.813ZM30.4166 44.1042C30.4166 45.0167 31.025 45.625 31.9375 45.625C32.1156 45.625 32.2938 45.5728 32.4414 45.5296C32.5458 45.499 32.6349 45.4729 32.6979 45.4729L44.8646 37.8688L45.3208 37.4125C45.7771 36.6521 45.625 35.7396 44.8646 35.2833L32.6979 27.6792C32.5458 27.5271 32.2416 27.375 31.9375 27.375C31.025 27.375 30.4166 27.9833 30.4166 28.8958V44.1042ZM33.4583 41.3667V31.6333L41.2146 36.5L33.4583 41.3667Z" fill="url(#paint0_linear_0_474)"/>
<defs>
<linearGradient id="paint0_linear_0_474" x1="36.5" y1="0" x2="36.5" y2="73" gradientUnits="userSpaceOnUse">
<stop stop-color="#316BBF"/>
<stop offset="1" stop-color="#7A5CD0"/>
</linearGradient>
</defs>
</svg>
