<svg width="80" height="75" viewBox="0 0 80 75" fill="none" xmlns="http://www.w3.org/2000/svg">
<path fill-rule="evenodd" clip-rule="evenodd" d="M4.68456 64.7883H41.0888C41.2031 64.7883 41.3137 64.772 41.4183 64.7415C45.1599 70.5069 51.6545 74.3284 59.0249 74.3284C70.5913 74.3284 80 64.9179 80 53.3533C80 45.0801 75.1842 37.9102 68.2086 34.4992V4.68362C68.2086 2.10033 66.1073 0 63.5249 0H4.68456C2.10127 0 0 2.10127 0 4.68362V14.8035V60.1047C0 62.6871 2.10222 64.7883 4.68456 64.7883ZM4.68456 62.4348H40.1201C38.7942 59.6856 38.0508 56.6051 38.0508 53.3543C38.0508 41.7897 47.4594 32.3801 59.0249 32.3801C61.415 32.3801 63.713 32.7819 65.855 33.5216V15.9803H2.35358V60.1047C2.35358 61.3898 3.39857 62.4348 4.68456 62.4348ZM2.35358 13.6267V4.68362C2.35358 3.39857 3.39951 2.35358 4.68456 2.35358H63.5249C64.81 2.35358 65.855 3.39951 65.855 4.68362V13.6267H2.35358ZM15.6061 11.9468C13.5077 11.9468 11.7999 10.2391 11.7999 8.14064C11.7999 6.04125 13.5067 4.3335 15.6061 4.3335C17.7055 4.3335 19.4142 6.04125 19.4142 8.14064C19.4142 10.2391 17.7065 11.9468 15.6061 11.9468ZM15.6061 6.68707C14.805 6.68707 14.1535 7.33854 14.1535 8.14064C14.1535 8.9418 14.805 9.59327 15.6061 9.59327C16.4082 9.59327 17.0606 8.9418 17.0606 8.14064C17.0606 7.33854 16.4082 6.68707 15.6061 6.68707ZM48.7906 8.14064C48.7906 10.2391 50.4993 11.9468 52.5978 11.9468C54.6972 11.9468 56.404 10.2391 56.404 8.14064C56.404 6.04125 54.6972 4.3335 52.5978 4.3335C50.4984 4.3335 48.7906 6.04125 48.7906 8.14064ZM51.1442 8.14064C51.1442 7.33854 51.7957 6.68707 52.5978 6.68707C53.399 6.68707 54.0504 7.33854 54.0504 8.14064C54.0504 8.9418 53.399 9.59327 52.5978 9.59327C51.7957 9.59327 51.1442 8.9418 51.1442 8.14064ZM34.1043 11.9468C32.0059 11.9468 30.2981 10.2391 30.2981 8.14064C30.2981 6.04125 32.0049 4.3335 34.1043 4.3335C36.2037 4.3335 37.9105 6.04125 37.9105 8.14064C37.9105 10.2391 36.2028 11.9468 34.1043 11.9468ZM34.1043 6.68707C33.3031 6.68707 32.6517 7.33854 32.6517 8.14064C32.6517 8.9418 33.3031 9.59327 34.1043 9.59327C34.9055 9.59327 35.5569 8.9418 35.5569 8.14064C35.5569 7.33854 34.9045 6.68707 34.1043 6.68707ZM10.6401 35.7124H20.5741C21.2237 35.7124 21.7509 35.1861 21.7509 34.5365V24.6016C21.7509 23.952 21.2237 23.4248 20.5741 23.4248H10.6401C9.99052 23.4248 9.46332 23.952 9.46332 24.6016V34.5356C9.46332 35.1852 9.99052 35.7124 10.6401 35.7124ZM19.3973 33.3588H11.8169V25.7774H19.3973V33.3588ZM20.5741 55.5817H10.6401C9.99052 55.5817 9.46332 55.0545 9.46332 54.405V44.471C9.46332 43.8214 9.99052 43.2942 10.6401 43.2942H20.5741C21.2237 43.2942 21.7509 43.8214 21.7509 44.471V54.405C21.7509 55.0545 21.2237 55.5817 20.5741 55.5817ZM11.8169 53.2282H19.3973V45.6478H11.8169V53.2282ZM29.1364 35.7124H39.0713C39.7218 35.7124 40.2481 35.1861 40.2481 34.5365V24.6016C40.2481 23.952 39.7209 23.4248 39.0713 23.4248H29.1364C28.4868 23.4248 27.9596 23.952 27.9596 24.6016V34.5356C27.9596 35.1852 28.4868 35.7124 29.1364 35.7124ZM37.8945 33.3588H30.3132V25.7774H37.8945V33.3588ZM35.9541 55.5817H29.1372C28.4876 55.5817 27.9604 55.0545 27.9604 54.405V44.471C27.9604 43.8214 28.4876 43.2942 29.1372 43.2942H37.7975C38.447 43.2942 38.9742 43.8214 38.9742 44.471C38.9742 45.1206 38.447 45.6478 37.7975 45.6478H30.314V53.2282H35.9541C36.6037 53.2282 37.1309 53.7554 37.1309 54.405C37.1309 55.0545 36.6037 55.5817 35.9541 55.5817ZM46.4577 32.938C46.4577 33.5876 46.9849 34.1148 47.6345 34.1148C48.2841 34.1148 48.8113 33.5876 48.8113 32.938V25.7784H56.3907V29.9094C56.3907 30.559 56.9179 31.0862 57.5675 31.0862C58.2171 31.0862 58.7443 30.559 58.7443 29.9094V24.6016C58.7443 23.952 58.2171 23.4248 57.5675 23.4248H47.6345C46.9849 23.4248 46.4577 23.952 46.4577 24.6016V32.938ZM59.0249 34.7328C48.7577 34.7328 40.4044 43.0861 40.4044 53.3533C40.4044 63.6206 48.7577 71.9739 59.0249 71.9739C69.2922 71.9739 77.6464 63.6215 77.6464 53.3533C77.6464 43.0851 69.2931 34.7328 59.0249 34.7328ZM59.0249 54.5301H68.1003C68.7509 54.5301 69.2771 54.0038 69.2771 53.3543C69.2771 52.7047 68.7499 52.1775 68.1003 52.1775H60.2017V42.042C60.2017 41.3924 59.6745 40.8652 59.0249 40.8652C58.3753 40.8652 57.8481 41.3924 57.8481 42.042V53.3533C57.8481 54.0029 58.3753 54.5301 59.0249 54.5301Z" fill="url(#paint0_linear_0_438)"/>
<defs>
<linearGradient id="paint0_linear_0_438" x1="40" y1="0" x2="40" y2="74.3284" gradientUnits="userSpaceOnUse">
<stop stop-color="#316BBF"/>
<stop offset="1" stop-color="#7A5CD0"/>
</linearGradient>
</defs>
</svg>
