<svg width="55" height="79" viewBox="0 0 55 79" fill="none" xmlns="http://www.w3.org/2000/svg">
<path fill-rule="evenodd" clip-rule="evenodd" d="M6.54762 0H32.7381C34.474 0.00207934 36.1382 0.692584 37.3657 1.92005C38.5931 3.14752 39.2836 4.81172 39.2857 6.54762V19.1819L51.844 34.8805C53.8833 37.437 54.9958 40.6093 55 43.8795V77.2619C55 77.6092 54.862 77.9423 54.6165 78.1879C54.3709 78.4335 54.0378 78.5714 53.6905 78.5714H33.2187C29.2723 78.5666 25.489 76.9967 22.6985 74.2063C19.908 71.4158 18.3382 67.6324 18.3333 63.6861V60.2381H6.54762C4.81172 60.236 3.14752 59.5455 1.92005 58.318C0.692584 57.0906 0.00207934 55.4264 0 53.6905V6.54762C0.00207934 4.81172 0.692584 3.14752 1.92005 1.92005C3.14752 0.692584 4.81172 0.00207934 6.54762 0ZM35.516 3.7697C34.7793 3.03295 33.78 2.61905 32.7381 2.61905H31.4286V35.3283L36.6667 40.8938V6.54762C36.6667 5.5057 36.2528 4.50645 35.516 3.7697ZM26.5689 30.1649L28.8095 32.5456V2.61905H24.881V28.9274C25.5111 29.2389 26.0823 29.6576 26.5689 30.1649ZM2.61905 6.54762V53.6905C2.61905 54.7324 3.03295 55.7316 3.7697 56.4684C4.50645 57.2051 5.5057 57.619 6.54762 57.619H22.2619V43.8127L17.5358 38.2276C16.5625 37.0648 16.0581 35.5807 16.121 34.0656C16.184 32.5504 16.8099 31.1133 17.8763 30.0352C18.4407 29.4502 19.1217 28.99 19.8751 28.6846C20.6285 28.3792 21.4376 28.2353 22.2501 28.2621H22.2619V2.61905H6.54762C5.5057 2.61905 4.50645 3.03295 3.7697 3.7697C3.03295 4.50645 2.61905 5.5057 2.61905 6.54762ZM24.881 57.619H28.9405C28.8572 56.9482 28.8135 56.2731 28.8095 55.5971V51.5507L24.881 46.9085V57.619ZM52.381 43.8795C52.3781 41.2037 51.4672 38.6081 49.7973 36.5174L39.2857 23.3789V43.6765L44.1742 48.8636L42.2649 50.6602L24.6662 31.9602C24.352 31.6239 23.9729 31.3548 23.5518 31.1691C23.1307 30.9834 22.6763 30.885 22.2161 30.8799C21.7542 30.8653 21.2944 30.9472 20.866 31.1203C20.4375 31.2935 20.05 31.5541 19.728 31.8856C19.1228 32.4976 18.7676 33.3134 18.732 34.1734C18.6964 35.0334 18.9829 35.8758 19.5355 36.5357L31.1195 50.2255C31.3193 50.4621 31.4288 50.7618 31.4286 51.0714V55.5971C31.4376 58.6144 32.3624 61.5578 34.0806 64.038C35.7987 66.5182 38.2294 68.4184 41.051 69.4873L40.1343 71.9413C37.5617 70.9644 35.2549 69.3961 33.4002 67.3631C31.5455 65.3301 30.195 62.8894 29.4577 60.2381H20.9524V63.6861C20.9562 66.9381 22.2498 70.0559 24.5493 72.3555C26.8489 74.655 29.9666 75.9486 33.2187 75.9524H52.381V43.8795ZM6.54761 6.54688H9.16665V23.5707H6.54761V6.54688ZM15.7143 6.54688H13.0952V17.0231H15.7143V6.54688ZM7.85713 43.2148H15.7143C16.0616 43.2148 16.3947 43.3528 16.6402 43.5984C16.8858 43.844 17.0238 44.1771 17.0238 44.5244V52.3815C17.0238 52.7288 16.8858 53.0619 16.6402 53.3075C16.3947 53.5531 16.0616 53.691 15.7143 53.691H7.85713C7.50982 53.691 7.17674 53.5531 6.93116 53.3075C6.68557 53.0619 6.54761 52.7288 6.54761 52.3815V44.5244C6.54761 44.1771 6.68557 43.844 6.93116 43.5984C7.17674 43.3528 7.50982 43.2148 7.85713 43.2148ZM9.16665 51.072H14.4048V45.8339H9.16665V51.072Z" fill="url(#paint0_linear_0_466)"/>
<defs>
<linearGradient id="paint0_linear_0_466" x1="27.5" y1="0" x2="27.5" y2="78.5714" gradientUnits="userSpaceOnUse">
<stop stop-color="#316BBF"/>
<stop offset="1" stop-color="#7A5CD0"/>
</linearGradient>
</defs>
</svg>
